<svg xmlns="http://www.w3.org/2000/svg" viewBox="0 0 500 500" xmlns:xlink="http://www.w3.org/1999/xlink"><defs><style>.cls-3{fill:#f3f6f4}.cls-4{fill:#f3f5f4}.cls-5{fill:#f3f5f3}.cls-7{fill:#f3f7f5}.cls-10{fill:#f6f7f6}.cls-11{fill:#f6f7f7}.cls-12{fill:#f7f9f8}.cls-13{fill:#f7f7f7}.cls-14{fill:#f7f8f7}.cls-15{fill:#f7f8f8}.cls-16{fill:#f2f6f4}.cls-17{fill:#f2f5f3}.cls-20{fill:#f2f4f3}.cls-24{fill:#f8f9f8}.cls-35{fill:#67c48f}.cls-46{fill:#65c08d}.cls-54{fill:#65c891}.cls-72{fill:#eef0ef}.cls-74{fill:#eef1ef}.cls-79{fill:#f0f2f1}.cls-84{fill:#f4f6f5}.cls-85{fill:#f4f7f5}.cls-87{fill:#e6ece9}.cls-91{fill:#e9edeb}.cls-92{fill:#e9edea}.cls-95{fill:#f4f5f5}.cls-97{fill:#f5f5f5}.cls-98{fill:#f5f8f7}.cls-100{fill:#f5f6f6}.cls-101{fill:#f5f6f5}.cls-102{fill:#fafbfa}.cls-105{fill:#e3e9e6}.cls-108{fill:#e3e7e5}.cls-109{fill:#e8eeea}.cls-110{fill:#e8edea}.cls-112{fill:#edf0ee}.cls-116{fill:#fff}.cls-120{fill:#f0f3f1}.cls-122{fill:#f1f3f2}.cls-123{fill:#f1f4f2}.cls-124{fill:#f1f4f3}.cls-130{fill:#e2e9e5}.cls-133{fill:#eceeed}.cls-136{fill:#eff0ef}.cls-138{fill:#eff3f1}.cls-142{fill:#eff2f0}.cls-143{fill:#eff1f0}.cls-163{fill:#64ce92}.cls-171{fill:#64ca91}.cls-172{fill:#64cd90}.cls-181{fill:#64c68e}.cls-198{fill:#66c18e}.cls-209{fill:#63c990}.cls-222{fill:#6ac08e}.cls-230{fill:#7bc39a}.cls-243{fill:#69c691}.cls-300{fill:#89bfa1}.cls-330{fill:#9bc4ae}.cls-350{fill:#8dbaa1}.cls-380{fill:#bad2c5}.cls-407{fill:#cee2d7}.cls-409{fill:#ced8d3}.cls-432{fill:#aad1bc}.cls-518{fill:#cbdbd2}.cls-521{fill:#cbdad2}.cls-532{fill:#cfdcd5}.cls-543{fill:#dde3e0}.cls-548{fill:#dce7e0}.cls-550{fill:#dce5df}.cls-555{fill:#d1dad5}.cls-568{fill:#c4d8cc}.cls-569{fill:#c4d8cd}.cls-579{fill:#d3dcd7}.cls-600{fill:#dfe8e3}.cls-608{fill:#aed3be}.cls-623{fill:#c5d9ce}.cls-627{fill:#dae3de}.cls-629{fill:#e1e6e3}.cls-632{fill:#e0e9e4}.cls-634{fill:#e0e8e3}.cls-656{fill:#93c2a8}.cls-658{fill:#a2cab3}.cls-668{fill:#6cc491}.cls-685{fill:#6fc493}.cls-730{fill:#88bd9f}.cls-735{fill:#6dbc8e}.cls-741{fill:#6dbb8e}.cls-749{fill:#6bc190}.cls-784{fill:#61d091}.cls-796{fill:#61d18e}.cls-815{fill:#6fc193}.cls-829{fill:#60d08d}.cls-838{fill:#60d28f}.cls-839{fill:#60d290}.cls-847{fill:#5ecf8d}.cls-849{fill:#5ed08e}.cls-851{fill:#5dcf8d}.cls-885{fill:#5fcf8d}.cls-887{fill:#5fd08d}.cls-888{fill:#5fd08e}.cls-890{fill:#5fcf8e}.cls-905,.cls-906{fill:#5ccd8b}.cls-910{fill:#60bf88}.cls-935{fill:#73c899}.cls-906{stroke:#000;stroke-miterlimit:10;stroke-width:.5px}</style></defs><g id="Layer_1" data-name="Layer 1"><path d="M500 250v246q0 4-4 4H4q-4 0-4-4V4q0-4 4-4h492q4 0 4 4zm-191 14 1 1c4 3 7-1 10-2l5-2 8-2q2 6 8 1l18-11 17-13 5-6q5-2 9-7l12-14v-2l10-20 4-7 4-13c1-3 3-7-2-8v-2l5-3-3-4v-1q7-1 11 5 5 6 9 1l8-9 15-10q6-5 2-10v-3q5-1 1-6l-3-2-15-16-17-18-26-27q-2-4-4 0h-4q-3-6-7 0l-13 15-14 15-7 8-5 5-15 15-5 7q-1 5-6 3v-3l3-3-3-10-15-26-2-2-14-11q-4-5-10-3h-2q1-5-4-5-3 0-6-4-6-4-9 1h-2q-2-7-7-2h-21l-4-3-4 5h-3l-4-3-3 6h-1l-7-1q-14 6-24 18l-13 15q-6 4 0 8l-1 2q-6 0-7 5t-3 10q-5 5 1 9v24q-4 3-3 7l6 3v2q-5 2-2 5l1 5 6 2v3l1 7 10 13 4 4 1 1 5 4 4 1h3l1 4q2 5 8 4c2 0 3 4 5 0h1l6 2 3 6 4-3h6q0 8 8 2h11l4 3 4-5h5c1 5 4 3 7 2l5-2q8 0 9-8h1q11 3 12-11 8 5 11-4c1-6 10-6 9-14q6-3 7-9 5-6 0-11l5-3-3-3v-2q6-1 6-8v-8l1-5 5 3 14 14 6 3q6 8 11 2l4-1-5 7-2 7q-2 6-6 10l-4 5q-6 4-2 10l-1 1c-3-1-9 2-10 5l2 4-1 1h-2q-2-4-5-1l-5 3q-5 2-5 8l-4 2-4-3-3 6h-1l-4-2-16 5-2 4h-2l-5-3q-5 1-5 6h-12q-1-4-5-3l-3 5h-40l-3-2q-8-3-11 5h-6l-3-1-4-1-3 4h-2q-3-3-5-2l-5 5h-2l-5-1-5 1-3 2-2 1q-11 0-11 7l-4 2-4-2-2 5-2 1q-4-2-8 1l-12 9-3 3q-11 6-17 16l-4 5-1 1-2 4-5 6-3 8-2 2-3 8-5 9-1 5-1 5-1 2q-6 5 0 10v6l-4 1v5l2 1v84l-3 3 3 3 3-3h31l3 5 6-2q5-6 5-11v-61l-2-8 1-4q4-3 3-10v-3c4-4 2-10 2-15v-2l5-2-2-4 2-4q6 1 8-5 1-4 4-6c8-5 12-13 20-16l19-13h2q9 2 13-7h2l4 3 3-5h3l5 3 3-6h14l5 3 3-5h19l18-1h2l8-2h9l6-2 9-1 1-3zm-48 25-4-2-5-1h-19q-7-8-10 3l-4 2h-5q-2-2-4-1-5 0-8 3-7 2-10 8l-5 3-6 7-5 6-4 3-2 4-1 1-2 6-6 10 3 3v2l-4 1-2 8 3 1v27l-3 3q0 6 6 6v1q-6 2-1 5l1 5 5 10 3 3 2 4 1 1 2 4 1 2 23 18q4 3 6-1h3l1 2q-1 8 7 5l3 2h5v-2h35l2 3 4-5h2q1 3 5 2l10-4q11-4 6-11l1-1 4 1c5 1 7-5 11-7q4-2 7-8l11-19 2-6q5-5 0-9v-1q6-2 6-8v-18q0-5-6-6v-3q5-3 1-7l-1-1c3-7-2-6-6-6l-2-2v-1l3-5q-1-6-6-9l-10-12-5-6-20-12-11-3-1 2z" class="cls-116"/><path d="M326 122q5 2 6-3l5-7 15-15 5-5 7-8 14-15 13-15q4-6 7 0l-4 5-1 2v1q-5 2-8 6l-12 14-2 3-4 4-3 3-6 7-1 1v1h-1l-4 3-3 3-2 2-3 4v1h-1l-4 3-1 2-4 3 2 6h1l9 8 1 1 8 9 2 1 2 1q3 6 7 1l2-2 3-4 3-3 2 5 1 8v1l-1 2-1 1v3l-3 4 1 3-1 1-3 5-3 6-3 4-4 4v4l-5 2q-4-6 2-10l4-5 6-10 2-7 5-7-4 1q-6 5-11-2l-6-3-14-14-5-3-1 5v8q0 7-6 8v-6l1-1 1-18-2-1zm93 37c5 1 3 5 2 8l-4 13-4 7-10 20v2l-12 14q-4 5-9 7l-5 6-17 13-18 11q-5 4-8-1v-1l5-4v-1h2l6-2 5-4 1-1 2-1h1q4 2 5-2l2-3 2-2 5-2 3-3 3-3 4-4h1l5-5 1-3 4-5 1-2h1l3-4v-2q5 0 5-5v-2q6-1 5-7v-2l1-1q5-3 3-9l1-3 1-2 1-1 3-7v-1l2-5zM402 54q2-4 4-1l26 28 17 18 15 16 3 2q4 5-1 6l-4-3-5-4-3-4-4-3-3-3-1-1v-3l-3-3-2-1v-1l-5-5-4-3-1-1v-1l-3-3-3-3-5-5h-1c0-2 1-6-4-4l-1-1-2-4-4-4v-1l-5-6-1-1zM121 340c0 5 2 11-2 15v3c0 4 2 8-3 10l-1 4 2 8v61q0 5-5 11l-6 2-3-5c2-1 6 2 7-2v-1l3-5v-76l3-13 1-6 1-1zM285 64q6-2 10 3l14 11 2 2 15 26 3 10-3 3-3-9-3-3-1-1v-1l-1-5-3-3-2-3-3-5-3-3-4-3-1-1v-1l-1-1-1-1-2-2-1-1-5-4h-1l-1-1-3-2v-1zm-93 217q-4 8-13 7h-2l-19 12c-8 4-12 12-20 17q-3 2-4 6-2 6-8 5v-4h1q5-1 4-6l2-2 3-3 8-8 2-4h1l4-3v-1l1-1 3-1 3-2 3-2 2-1h2l8-4h2c4-1 8 0 10-5zm-98 9 1-1q5 1 4-5 6-11 17-16l5 3v1h-1l-3 1-2 1-3 4-4 4-1 1-3 4-2 2-2 3-4 4v2l-4 5-3 4-1 4v1h-1l-3 5-2 5h-1l-1 5v2l-3 3-3 5h-2l1-5 1-5 5-9 3-8 2-2 3-8 5-6zm174-1 1-2 11 3 20 12 5 6 10 12q5 3 6 9l-3 5-1-1h-1v-2l-1-2-1-1v-1l-4-5-1-2-1-1v-2l-8-8-1-1q-2-5-6-4l-1-1q0-5-5-3l-2-1-5-2-1-1-1-1-3-3h-5zm-61 155q-1 4-6 1l-23-18-1-2-2-4-1-1-2-4-3-3-5-10-1-5q-5-3 1-5l3 7 2 1 2 5h1l1 2v1l1 1v3l3 3 1 1 2 1v1q-2 4 2 4l2 2 3 4 5 4 2 1h2l3 3 6 5zm259-318q4 5-2 10l-15 10-7 9q-6 5-10-1t-11-5v-10l7 6 5 4 4 1q4 2 4-3l1-1 4-3 2-2 3-3 6-5 7-5 1-1zM171 99q-6-4 0-8l13-15q10-12 25-18l6 1-5 3-4 4-6 3-5 4h-1l-2 1-3 3-1 2v1l-2 1-5 5v1q-5 0-5 5l-3 7zm155 288q5 4 0 9l-2 6-11 19q-3 6-7 8c-4 2-6 8-11 7v-4l1-1q5 1 5-4l6-5 4-4v-2l2-4v-1l1-1 4-4q3-3 2-7l1-2 2-1q3-3-1-6v-1l2-1zm-2-225q5 6 0 11-1 6-7 9c1 7-8 8-9 14q-3 9-11 4v-2l1-1 7-6 4-5 4-4 3-5 2-2 1-6v-1l1-1 3-5zM176 317l5-6 6-7 5-3q3-6 10-8l8-3q2-1 4 1v3l-2 1-2 1h-1l-1 1h-1l-4 2-2 1-2 1-4 3-5 4-1 1-5 6-1 1-3 2zm9-116q0-4-4-4l-10-13-1-7h5v1l1 1v2l3 4 1 4 3 3 2 2 3 3 2 2 1 3zm141 153q6 1 6 6v18q0 6-6 8l-1-5v-1l3-4v-13l-2-4z" class="cls-116"/><path d="m176 317 4 1v1l-4 4-2 5-3 5-2 5-2 2-3 4-3-3 6-10 2-6 1-1 2-4zm114 119q4 7-6 11l-10 4q-4 1-5-2l1-1 3-3 2-1 1-1 2-1h1q3 2 4-1v-1h2l1-2 2-1zM161 125q-6-4-1-10l3-9q0-6 7-5v3l-1 2-2 6q-5 2-2 5v2q-4 2-3 6zm-42 140 12-9q4-4 8-1l-1 2-3 4-1 1-2 1-3 1h-2l-3 3-2 3h-1zm165-54q-1 8-9 8l-5 2c-3 1-6 3-7-2l1-1 2-3h2q6 2 9-3l3-2h1zm9 15 2-4 16-5 4 2-7 4-1 1h-2l-6 2zm34-12q0-6 5-8l5-3q3-3 5 1l-5 6-2 2-5 3-2 1h-1zM264 56q3-5 9-1 3 4 6 4 5 0 4 5l-1 2h-1l-3-3q-3-5-8-3h-1l-4-3h-1z" class="cls-116"/><path d="M69 445v-78h2v4l-1 5v69z" style="fill:#e7ece9"/><path d="M297 200q-1 14-12 11l2-5 6-3zm-146 49q0-7 11-7l1 4-1 1-5 2zm169 88c4 0 9-1 6 6l1 2q4 3-1 6l-3-3-1-2v-1q3-4-2-5zM169 173l-6-2q3-3-1-5-3-3 2-5l2 2 1 1 2 3zm52 280-3-2q-7 3-7-5h4l4 2 5 1 2 2v2zm124-250-2-4c1-3 7-6 10-5l-1 3-1 2-2 1-1 2zm-166 36 5-5 5 2v1l-3 3-6 1zm28-5q3-8 11-5l3 2v2h-2q-4-3-7 1zm-43 7 3-2 5-1 5 1-2 2-5 1-2 3h-1l-3 1zm42-27q-5 1-8-4l2-4 3 1 3 2zM71 351v-2q-6-5 0-10h3l1 3v2c-4 1-2 4-3 7zm93-192-6-3q-1-4 3-7h1l2 5 1 1v3zm-3 197-3-1 2-8 4-1v6l-2 3zm62-67q4-11 10-3v1l-4 3h-4zm58-60q0-5 5-6l5 3v1h-1l-3 2zM164 392q-6 0-6-6l3-3h1l2 8z" class="cls-116"/><path d="M110 447c-1 4-5 1-7 2H72v-1h33z" style="fill:#f5f8f6"/><path d="m216 59 3-6 4 3v1l-3 3h-1l-2 1h-1zm-25 177 3-4 4 1 3 1-6 2zm21 40-3 6-5-3 1-1zm49-45 3-5q4-1 5 3l-3 2zm-3-12-4 5-4-3 2-2zm-33 0-4 3-2-7h3zm91 0 3-6 4 3-4 4-3 1zm-82 55-3 5-5-3 2-2zm-8-218 4-5 4 3zm-25 223-3 5-4-3 2-3h1zm-60-25 2-5 4 2v2l-2 2h-1z" class="cls-116"/><path d="M162 383v-27l1-1v28" class="cls-12"/><path d="M239 221q-8 7-8-2h5zm182-71 3 4-5 3v-4z" class="cls-116"/><path d="M221 233v-2h26v1h-18l-7 1z" class="cls-15"/><path d="M234 274h-7v-1h26v1z" style="fill:#f0f7f3"/><path d="m72 448-3 3-3-3 3-3zm254-292 3 3-5 3zM124 332l2 4-5 2v-5zm-57 24 4-1v5l-2 2-2-1z" class="cls-116"/><path d="M233 287v-1h19l5 1z" class="cls-98"/><path d="M162 149v-24h1v24" class="cls-11"/><path d="m319 220 4-4 4-2v2z" class="cls-124"/><path d="M255 54q5-5 7 2h-5z" class="cls-116"/><path d="m290 436-2 1-2 1-1 1h-1l3-5 2-1 3-1 1 1-2 2z" style="fill:#6fc494"/><path d="M121 334v6l-3 5-1-4v-1l2-4z" class="cls-123"/><path d="m226 56 8-2h3v1l-2 2h-12v-1z" class="cls-12"/><path d="m267 449-4 5-2-3 2-2z" class="cls-116"/><path d="m352 197 1-3 1-1 5-2-1 3-6 4z" style="fill:#9fc4b0"/><path d="M237 451h-7l-5-2v-1l1-1h1l4 1 1 1 5 1z" class="cls-634"/><path d="m195 236 6-2h6v1l-2 1-5 1z" class="cls-110"/><path d="m239 221-3-2h16l-2 2z" class="cls-11"/><path d="M247 232h19v1h-19" class="cls-7"/><path d="m337 210 5-6h2l-1 3-3 2-1 1z" class="cls-79"/><path d="M316 219v2l-1 1-5 2-2-1 7-4z" class="cls-101"/><path d="m323 348 3 3v4h-2l-1-1z" class="cls-5"/><path d="m334 258-8 2-1-1v-1l3-1h6" style="fill:#f1f5f3"/><path d="m326 156-2 6h-1l-1-1v-5l3-5h1z" class="cls-120"/><path d="M253 274h18z" style="fill:#f4f8f6"/><path d="m287 206-2 5h-1l-3-1 1-2z" class="cls-4"/><path d="M266 232v-1l3-2h5v2h-2l-5 1z" class="cls-24"/><path d="m255 54 2 2-2 1h-3l-2-1-1-1v-1z" class="cls-4"/><path d="m124 332-3 1 2-4 3-3v2z" style="fill:#f3f6f5"/><path d="m219 215-1 1-6-2v-1l2-1z" class="cls-123"/><path d="M206 214v-5h1l1 1 1 2v2h2c-2 4-3 0-5 0" class="cls-116"/><path d="M227 274h1l-2 2h-10v-2z" class="cls-122"/><path d="M147 253v-2l4-2h4l-5 4z" class="cls-138"/><path d="M185 201h5q0 4 4 4v1l-4-1z" class="cls-116"/><path d="m291 435 2-2 2-1v4z" class="cls-84"/><path d="M164 392v-1h2l1 2v7z" class="cls-10"/><path d="m175 241 2-2h2l1 2v1l-5 1z" class="cls-100"/><path d="m323 113 3 8h-1l-3-2v-5z" class="cls-142"/><path d="M237 451h14v1z" style="fill:#d3e7dc"/><path d="m223 289 2 1-5 3h-1v-2z" style="fill:#eaefeb"/><path d="M251 451h6l6-2v1l-4 2z" style="fill:#dce6e1"/><path d="M258 219h-6l7-2h2l3 1-1 1z" style="fill:#f3f8f5"/><path d="M271 273h-3v-2h9l-4 2z" style="fill:#e2e6e3"/><path d="M216 274v2h-9v-1h2l5-1z" style="fill:#dbe8e1"/><path d="m282 66 1-2h2l2 4h-3z" class="cls-123"/><path d="M169 173v-2l3 3 1 1 1 1h-5z" style="fill:#f2f5f4"/><path d="m207 444-2-2v-2l5 4z" style="fill:#dee4e1"/><path d="M274 231v-2h7v1l-1 1z" class="cls-109"/><path d="m141 254 3 1-3 2h-3l1-2z" class="cls-84"/><path d="M402 54v1l-4 2-4 2 4-5z" class="cls-112"/><path d="m311 265-1-1 2-1 2-1h2z" style="fill:#dae2de"/><path d="m311 265 5-3 2 1h3c-3 1-6 5-10 2" class="cls-84"/><path d="M164 349v-5l3-4v4l-1 4-1 1z" class="cls-122"/><path d="m268 289 2 3v1h-2l-1-1-1-1v-2z" class="cls-100"/><path d="M320 337v4h-1l-2-6h1z" style="fill:#a7cbb6"/><path d="M71 360v-9h3v1l-1 1-1 6z" class="cls-85"/><path d="m196 278-2 3h-3v-2l2-1z" class="cls-10"/><path d="m466 126-1 1-2-4-1-2v-1l4 3z" class="cls-122"/><path d="M263 449v-1l1-1h5l1 1-1 1z" class="cls-98"/><path d="M194 206v-2l5 1 1 2h-6" class="cls-79"/><path d="m343 207 1-3 1-1 3-1-2 4z" style="fill:#96c3aa"/><path d="m69 362 2-2v7h-2z" class="cls-85"/><path d="M215 446h-4l-1-2h5l2 1v1z" class="cls-632"/><path d="M249 54v1h-12v-1z" class="cls-72"/><path d="M290 271h-9v-1l6-1h3z" class="cls-632"/><path d="m195 236-2 1-2 1h-1l-1-2v-1h6" class="cls-12"/><path d="M219 291v2h-3l-1 1h-1v-3z" class="cls-85"/><path d="M266 289v2h-4l-2-1 1-1z" style="fill:#dae8df"/><path d="M216 59v2l-1 1h-5z" style="fill:#f4f5f4"/><path d="m273 273 4-2h4z" style="fill:#f2f2f2"/><path d="m305 268-9 1v-1l4-1h1z" class="cls-84"/><path d="m305 268-4-1v-1l5-1z" style="fill:#e3e8e5"/><path d="m82 310-3 8zm37-45 2 5v1l-5-3z" class="cls-116"/><path d="M235 219h-10v-1h10z" class="cls-7"/><path d="m309 264-3 1-1-1 4-1z" class="cls-735"/><path d="m255 57 2-1h7v1z" class="cls-16"/><path d="M419 153v6l-1 1-1-5v-2z" class="cls-85"/><path d="m201 279-4-1h8l-1 1z" style="fill:#f8faf9"/><path d="m225 449 5 2h-4l-2-2z" class="cls-10"/><path d="m421 150-2 3 1-7h1z" class="cls-15"/><path d="m325 260 1 1-5 2 2-2zm-35 11v-2h6z" class="cls-84"/><path d="m325 381 1 5v1l-2 1z" class="cls-91"/><path d="m261 289-1 1-3-1v-2z" class="cls-20"/><path d="M99 284q1 6-4 5z" class="cls-116"/><path d="M291 227h8v1h-8" class="cls-7"/><path d="M211 214h-2v-2zm-42 111-2 6zm11-129q4 0 4 4z" class="cls-116"/><path d="M325 121v7h-1v-7" style="fill:#e3eae6"/><path d="M164 241v5h-1l-1-4zm-2-75q4 2 1 5zm10 72-5 1zm25-32h3l-2 4z" class="cls-116"/><path d="m164 159 1-1 1 5-2-2z" class="cls-95"/><path d="m259 451 4-2-2 2z" style="fill:#f3f4f4"/><path d="M74 339h-3l1-2h2zm101 82 2 4zm-12-23 1 5zm-89-71-1 5z" class="cls-116"/><path d="m72 448-3-2v-1h1z" class="cls-95"/><path d="m170 102 1-2h1v2z" style="fill:#e2eae5"/><path d="M309 264v-1h3z" style="fill:#94bba5"/><path d="M318 335v-2l1 1z" class="cls-623"/><path d="m373 82 12-14q3-4 8-6l-2 3-4 5-2 2-4 4-5 4z" style="fill:#d3ded8"/><path d="m325 128 2 1-1 18-1 1v-16l-1-1v-3" class="cls-13"/><path d="m344 114 2-1 6-5 1 1-8 9z" style="fill:#67c18f"/><path d="m358 99 6-7 2-1h1l-1 2-3 3-1 1-1 1z" style="fill:#a9cab8"/><path d="m377 153-1-8-2-5v-1l1-1h2l1 10v3z" class="cls-12"/><path d="m359 148-2-1-4-4-1-1v-2q7 1 8 8z" style="fill:#83c29f"/><path d="m346 136-9-8 1-1 2 1 5 5v1z" style="fill:#d4dfd8"/><path d="m366 179 3-6h2v1l-3 5z" style="fill:#7dbd9a"/><path d="m394 59 4-2 4 1-4 1-3 3h-1l-1-1z" style="fill:#9cc3af"/><path d="M366 179h2v4l-2 1h-3v-1z" style="fill:#6dba8d"/><path d="m373 82 3-2 1 1-1 2-3 3h-1l-1-1z" style="fill:#8fc0a4"/><path d="m368 147-2 2h-2v-2l3-3 1-1h1z" style="fill:#8fc1a6"/><path d="m352 107-6 5 1-3 2-2 3-2z" style="fill:#c5d7ce"/><path d="m344 114 1 3v1l-4 2v-2l2-3z" style="fill:#65ba8b"/><path d="m371 85 1 1-1 2-3 3h-2l1-2z" style="fill:#9dc4ae"/><path d="m377 153 1-2h1q2 3-1 5h-1z" style="fill:#5bbc84"/><path d="m346 136-1-2 7 5-4-1-1-1z" style="fill:#8ac0a1"/><path d="m338 127-1 1h-1l-1-6h2z" style="fill:#c5d2cc"/><path d="M369 143h-1l1-2 4-2h1v1l-3 3z" style="fill:#6fbf94"/><path d="M364 149h2q-4 5-7-1h1z" class="cls-548"/><path d="M326 145v6h-1l-1-1-1-1v-1l1-3z" style="fill:#d6e2db"/><path d="M371 173h-2l3-5z" style="fill:#9fc4ae"/><path d="m343 115-2 3-3 2v-1l1-2z" style="fill:#d4e1da"/><path d="M352 106v-1l4-3v1z" style="fill:#9ecab1"/><path d="m373 167-1-3 3-3z" style="fill:#9cbfad"/><path d="m347 137 1 1 4 3v1l-1 1z" class="cls-84"/><path d="M377 156v4h-3v-3l1-1z" style="fill:#76b794"/><path d="m359 191 3-3 1 1z" style="fill:#6ebe8d"/><path d="M338 119v1l-1 2h-3z" class="cls-84"/><path d="M373 167h1l-2 5-1-3z" style="fill:#5dbd83"/><path d="m362 187-3 3v-3l4-2z" style="fill:#d3dfd7"/><path d="m353 143 4 4-2-1z" style="fill:#d6e1db"/><path d="m363 185-4 2 4-4z" class="cls-123"/><path d="m347 109-1 3-2 1z" class="cls-17"/><path d="M334 122h1l1 6z" class="cls-91"/><path d="m353 143 2 3-4-3 1-1z" class="cls-10"/><path d="m358 99 3-1-3 3-1-1z" style="fill:#74c698"/><path d="M369 143h2l-3 4z" style="fill:#ccddd5"/><path d="m367 89-1 2-2 1z" style="fill:#dce6e0"/><path d="M352 104v1l-3 2z" class="cls-79"/><path d="M377 156h-1l1-2z" style="fill:#c4d1ca"/><path d="M356 102h1z" style="fill:#a6c3b3"/><path d="m357 100 1 1h-1z" style="fill:#a1cdb5"/><path d="m393 61 1 1h-1z" style="fill:#b3c7bc"/><path d="m347 251-6 2-1-1 1-2 8-3h2z" style="fill:#81c49e"/><path d="M381 226h-1v-2l4-5 3-2v1l-1 3z" style="fill:#c0d5c8"/><path d="M406 191q0 6-5 7v-1l3-6 1-1z" class="cls-4"/><path d="M410 179q2 6-3 9v-3l1-4v-1z" class="cls-138"/><path d="m416 166-3 7v-4l1-3z" class="cls-122"/><path d="m401 199-3 1-2-1 3-4 1 2z" style="fill:#5dc187"/><path d="M334 258h-4l4-3 1-1h4z" style="fill:#d0ddd6"/><path d="m365 238-2 2h-2l6-6z" style="fill:#67c08c"/><path d="m398 201 3-1q0 5-5 5z" class="cls-74"/><path d="M396 206h-1l-3 2h-1q-2-4 3-6z" style="fill:#63cb92"/><path d="M380 224v2l-4 4h-2v-1l5-5z" style="fill:#9cc5ad"/><path d="m396 206-2-3 2-3 2 1z" style="fill:#6aca93"/><path d="m410 179-2 1 1-5 2 1z" class="cls-910"/><path d="M416 166h-3l2-6 1 1z" class="cls-407"/><path d="M351 247h-2l6-3h1v1h-1l-2 1-1 1z" style="fill:#70c694"/><path d="m356 245 2-1h3q-1 4-5 2" class="cls-123"/><path d="M387 218v-1l1-2 3-2z" class="cls-548"/><path d="m365 238 5-3v2z" style="fill:#c8d9cf"/><path d="M374 230h2l-3 3h-3v-1z" style="fill:#accdba"/><path d="m391 213-3 2v-3h1l3-2v1z" style="fill:#9bc5ac"/><path d="M413 169v4l-1 1-1 1z" style="fill:#82be9c"/><path d="M361 243h-3l1-2 2-1h2z" style="fill:#c3dacd"/><path d="M351 247h1l-5 4z" class="cls-110"/><path d="M392 211v-2l3-2z" style="fill:#b2cec0"/><path d="M416 165v-4l2-1z" class="cls-97"/><path d="m393 211 2-4h1z" class="cls-87"/><path d="M370 233h3l-3 3z" style="fill:#d9e4de"/><path d="m407 187-1 1h-1l1-3h1z" style="fill:#aac7b6"/><path d="M340 252h-2z" style="fill:#99cdaf"/><path d="M405 189v2l-1-1z" style="fill:#c5dacf"/><path d="m401 199-1-1 1-1z" style="fill:#afd3be"/><path d="m357 101 3-3 1-1c2 1 3 5 6 2 5-4 4-8 5-13l3-3 2-2 3-3 4-2 4 1-1-3-3-2 2-2 4-4 4-4 3-3 4 2q1 5 6 5l1 2 3 3h2l1 1 1 1 1 1 2 2v2l3 3 1 1 4 5 1 2 5 4 2 3v2h-2l1 2 1-2 6 6 3 1h2v1l7 10-2 2-4-3-3-2-1 2 2 2 2 1c4 5 4 5 8 0h2l2 4 1 1-1 5-2 1-3 4-2 1-3 3-1 1-1 1-3 3-1 1-2 1-4 3-4-1-8-11 1-2-5-5q-4-3-6 2-3 6 1 14v1l-1 4-4-7v6q2 8-3 14-6-2-2-7 2-4-1-6-2-1-1-4 4-5-3-8l-1-9q-3-6 3-6l3-3-3-2q-6-1-7 7l-2-5-3-2-2 3-1 3-3-3-3-3-3 3-3 2-2-3-3-3-1 4-2 2-2-2-3-4v-5l-5 1h-4l2-3 3-2 3-1-4-3-1-1zm42-25-5-2-3 5 2 1zm31 53-3-3-2 2 3 2z" class="cls-905"/><path d="m453 116-7-10h1l3 3 4 3 3 6h-2z" style="fill:#8cc0a3"/><path d="m445 105-3-5v-2l2 1 3 3v2z" style="fill:#d5e1da"/><path d="M414 71h-2l-3-3-1-2 4 1z" style="fill:#96c4a9"/><path d="M457 118v-2l5 4v1l-3 1z" style="fill:#99c4ac"/><path d="m427 87-4-5 1-1h1l3 3v1z" style="fill:#afcdbd"/><path d="m416 73-1-1c5-2 4 2 4 4l-2-2z" class="cls-124"/><path d="m403 56 5 6-4-2-1-1z" class="cls-143"/><path d="m436 92 2 3v2l-1-1-4-3v-3z" style="fill:#c4d7cc"/><path d="M403 56v3l-1-1-4-1 4-2z" style="fill:#d2dbd6"/><path d="m424 81-1 1-1-1-3-3v-2h1z" style="fill:#b2cfbf"/><path d="m427 87 1-2 3 3-1 1h-2z" style="fill:#bdd3c6"/><path d="M438 97v-2l3 2v3z" style="fill:#d0ded7"/><path d="m404 60 4 2v3h-1l-3-4z" class="cls-568"/><path d="M408 65v-2l4 4z" style="fill:#cddfd4"/><path d="m430 89 1 1 1 1v2z" class="cls-658"/><path d="m441 97-3-2v-1z" class="cls-20"/><path d="M447 106h-1v-1z" style="fill:#a8c7b4"/><path d="M113 372v69l-3 5v-1l1-5 1-5v-61z" class="cls-14"/><path d="M110 447H78l-5-1h37z" style="fill:#adbfb5"/><path d="m116 352-3 13-1-5 1-5 1-3z" style="fill:#eef1f0"/><path d="m113 372-1 2h-1l-1-3v-3l1-1h2z" style="fill:#e8ebe9"/><path d="M116 352h-2v-6l1-1 2 1z" style="fill:#d1e2d8"/><path d="M113 367h-2v-2l1-5 1 5z" class="cls-579"/><path d="m117 346-2-1 2-4 1 4z" style="fill:#cfdbd4"/><path d="m319 106 1 1v2l1 4 1 6v2l-3-3v-4l-2-4 1-4z" class="cls-222"/><path d="m302 82 1 1v2l-1 3c-4 0-2-3-2-5h1z" style="fill:#61d292"/><path d="M301 83h-1l-5-5 3-1 2 2v2z" style="fill:#63c08a"/><path d="M303 85v-2l4 3v2z" style="fill:#8cbfa2"/><path d="m313 94 2 3-1 2h-1l-1-2-1-3z" style="fill:#adcbb9"/><path d="M319 106h-1l-4-4v-2h1l3 4z" style="fill:#6bc192"/><path d="M313 94h-2l-2-3 1-2z" style="fill:#c7d9ce"/><path d="m321 113-1-4 3 1v3l-1 1z" style="fill:#e6e9e7"/><path d="m291 72 2 4v1l-5-4z" style="fill:#67c38f"/><path d="m294 76-2-4 5 4z" style="fill:#92c0a7"/><path d="m315 100 1-2 3 3v3z" style="fill:#cbdcd2"/><path d="m310 89-1 2-2-3v-2z" style="fill:#bbd1c4"/><path d="M318 103v-3l1 5-1-1z" class="cls-123"/><path d="M294 76h3l1 1-3 1-1-1z" style="fill:#70bd92"/><path d="m323 110-3-1v-2z" class="cls-14"/><path d="m287 69 3 2h-2l-1-1z" class="cls-330"/><path d="m301 83-1-2h2v1z" style="fill:#76b88e"/><path d="M302 81h-2v-1h1z" style="fill:#98c5a8"/><path d="M286 68v1z" class="cls-330"/><path d="M301 80v-1z" style="fill:#b1d3bf"/><path d="M152 296h-3q-9 2-10 9l-6 7-3 4v1l-1 1-4 3-2 4-1 2-2 7-4 4-1 3v-5l3-6v-5h-2c-7 5-7 6-5 14l1 4-1 1-4-6q-2-6-6-2l-4-1-1-3 6-2 4-2q0-3-3-5c-2-3-5-4 0-8l1-6-5-5-2-2v-2h2l13-16v-2l1-2v-1h3l5-4 1-4 7-4v-1l1-2h1q6 3 6-4h2l6-3h1q4 4 7 1c3-5 3 1 4 0q7-7 18-9 6-1 3-5l3-1 3 4 15-7 3-1 1 9q-4 6 3 8l5 4-4 2-1 1q5 2 9-4l4-3 3 3q2 4 5 0 6-6 11 0 2 4 5-1 2-3 5-1 5 3 9 0 3-3 5 1v3l2-2 5-3 1 5 1 3-1 3-2 1h-10q-2-5-7-4l-16 2-18 1-11 4-2 2h-3l-10 3h-1l-14 4q-6-5-10 4l-1 2-4 2h-1q-7 0-7 7" class="cls-905"/><path d="M152 296q0-7 7-7l-3 4-1 2z" class="cls-209"/><path d="m144 305-8 8v-2l1-2 1-2 2-2z" class="cls-112"/><path d="M185 281c-2 5-6 4-10 5l3-3 5-1 1-1z" class="cls-14"/><path d="m128 319 1-1h2q1 5-4 6z" class="cls-4"/><path d="m173 286-8 3 1-1 3-1z" class="cls-142"/><path d="m156 293 3-4h1l1 2-3 2z" style="fill:#7dbe99"/><path d="m161 291-1-2 4-2 1 1v1l-2 1z" style="fill:#6cc091"/><path d="M144 305h-4l2-2 4-2z" style="fill:#c8d7cf"/><path d="m121 328 1-2 2-2h2v2l-3 3z" style="fill:#86bd9e"/><path d="m146 301-4 2 5-5v3z" style="fill:#7abe98"/><path d="M126 324h-2v-2l4-2z" style="fill:#75bc92"/><path d="m185 281 4-2h3v2z" class="cls-548"/><path d="m178 283-3 3h-2v-2l2-1z" style="fill:#b8cdc2"/><path d="M147 300v-2l1-1h3v1z" style="fill:#afccbb"/><path d="M131 318h-2v-1l3-4h1v3z" style="fill:#b6cec0"/><path d="M133 316v-1l3-2z" class="cls-74"/><path d="M156 293h2l-3 2z" style="fill:#c4d3cb"/><path d="m163 290 2-1v1z" style="fill:#bcd0c5"/><path d="M74 339v-2l3-5 1 2v1l-1 2-2 5z" class="cls-84"/><path d="m89 307 3-4v3l-1 1v1z" class="cls-92"/><path d="m128 268-7 4v-2h1z" style="fill:#72c494"/><path d="M80 329v-3l2-3 1 4-1 1z" style="fill:#99c3ab"/><path d="m92 303 4-5v2z" style="fill:#d9e1dc"/><path d="M96 299v-3l4-2z" class="cls-656"/><path d="m78 334-1-2 3-3v2l-1 2z" class="cls-130"/><path d="m112 281-1 2-4 2v-2l1-1z" style="fill:#89bea2"/><path d="m82 322 2-5h2v1z" class="cls-521"/><path d="m112 281-4 1 4-4z" class="cls-623"/><path d="M86 317h-2l3-5v2z" class="cls-130"/><path d="m100 294-4 2 4-4z" style="fill:#c5d5cd"/><path d="M100 294v-2l2-3 1 1v2l-2 2z" class="cls-656"/><path d="m103 290 2-2 3-1-1 2z" style="fill:#9fc6b1"/><path d="m89 307 2 1-1 1-2 2z" class="cls-122"/><path d="m117 273 3-1-2 4h-2z" style="fill:#95c2ab"/><path d="m107 286-3 1 3-4z" style="fill:#d8e3dd"/><path d="m117 273-1 3-3 1 2-3z" style="fill:#ceddd5"/><path d="m118 276 2-4h1z" style="fill:#70c698"/><path d="m115 274-2 3-1 1z" class="cls-84"/><path d="m80 326 1-4h1v1z" style="fill:#dde3df"/><path d="m88 311 2-2-1 3h-1z" style="fill:#a5c5b3"/><path d="M87 314v-2h1z" class="cls-608"/><path d="m316 332 1 7h-1l-1 4-3-3q3-4-1-5l-5-3q-5 0-3-3l1-4v-5h3l2 3 4 4h1l1 2v1z" class="cls-885"/><path d="m300 309 8 8-6-4-2-2z" style="fill:#d5ded9"/><path d="M307 321h-1l-4-6 6 4 1 1z" class="cls-230"/><path d="m317 340-1-7h1v2l2 6z" style="fill:#76c298"/><path d="m310 322 4 5h-1z" style="fill:#c6d7cc"/><path d="m308 319-6-4v-2l6 4z" style="fill:#a3c4b1"/><path d="M270 293v-1h5l1 2-2 1z" style="fill:#dee5e1"/><path d="M293 304q4-1 6 4l-2-1z" class="cls-123"/><path d="M287 300q5-2 5 3l-4-1v-1z" class="cls-142"/><path d="m287 300 1 1h-4l-2-2h3z" style="fill:#90c7a7"/><path d="m288 302 4 1 1 1v2h-1z" style="fill:#aecdbd"/><path d="M285 299h-3l-2-2z" style="fill:#bbd2c6"/><path d="m276 294-1-2 3 3h-2z" class="cls-13"/><path d="m310 322-1 1v1l-2-3 2-1z" style="fill:#6fc090"/><path d="m297 307 2 1 1 1v2h-1l-2-3z" style="fill:#c1d6cb"/><path d="m315 330-1-2 1 1z" style="fill:#b7cfc2"/><path d="M277 295h1l1 1h-1z" style="fill:#afc9bd"/><path d="M315 330v-1l1 2z" style="fill:#cde0d5"/><path d="m279 296 1 1h-1z" style="fill:#9fc9b3"/><path d="M315 331v1z" style="fill:#aecfbd"/><path d="M313 327v1z" style="fill:#adcfbb"/><path d="m174 410-1-1 4-2q2-5 6-5l2 1v2l-7 4-2 2h-1z" class="cls-905"/><path d="m199 437-3-3v-2l9 6v1z" style="fill:#6bc191"/><path d="m177 407-4 2v-1l-1-2v-2l1-2c1 2 5 1 4 5" style="fill:#64ce8f"/><path d="m180 418-2-1-1-5 4 3z" style="fill:#6ec291"/><path d="m180 418 1-3 4 6z" style="fill:#62bd87"/><path d="m199 437 6 2v3z" class="cls-109"/><path d="M196 432v2h-2l-3-4 1-1 4 2z" style="fill:#70c292"/><path d="m177 412 1 5-1-1-3-3v-2h2z" style="fill:#c2d4ca"/><path d="m192 433-5-4v-2l3 3z" class="cls-17"/><path d="m184 425-2-2-1-2 4 4z" style="fill:#c7dacf"/><path d="m192 433-2-3h1l3 4z" style="fill:#cadbd1"/><path d="M184 425h2l1 2v2z" class="cls-84"/><path d="m171 406-2-5h1l1 3z" class="cls-550"/><path d="m181 421 1 2q-4-1-2-4z" class="cls-4"/><path d="M167 400v-3h1l1 4z" class="cls-550"/><path d="M171 406v-2h1v2z" style="fill:#c6d4cc"/><path d="M175 411v-1z" style="fill:#bfd6c9"/><path d="m428 145-7-6v-1l1-1 6 6z" class="cls-91"/><path d="m433 146 4 1h3l-3 3-4-1z" style="fill:#7ab895"/><path d="m452 134 2-1h1v1l-4 4-2 1-1-1 1-1z" style="fill:#9ec4b1"/><path d="M433 146v3l-5-4v-2z" style="fill:#aac8b6"/><path d="m448 138 1 1-1 2-2 2-3 2v-2l1-1 3-3z" style="fill:#aeccbc"/><path d="m464 128-7 5 1-2 3-3z" class="cls-4"/><path d="M464 128h-3l2-5z" style="fill:#dbe1de"/><path d="m458 131-1 2-2 1v-1l2-4 2-1z" style="fill:#8cbca1"/><path d="M421 138v8h-1v-8z" class="cls-92"/><path d="m437 150 3-3h1q0 5-4 3" style="fill:#e4eae7"/><path d="m441 147 1-3 2-1v2l-1 1z" style="fill:#93c1a7"/><path d="m442 146 1-1 3-2z" class="cls-110"/><path d="m448 141 1-2 2-1z" style="fill:#dee7e3"/><path d="M288 71v2l5 4 1 1 5 5c0 2-2 5 2 5l-2 1-3 2 3 1 5 4q3 3 5 0l2 1 1 2q-6 6-10-1l-1-1-3-1-2 3 2 8 2-5 1 4 1 5 3-4 2-3 3 4-2 4-6 8 2 4 3-3 1-4 3 3 2 3 1-4-2-2v-5l2 2h4v4l1 5 2 5v4l-6 2 5 3h1l1 12-1 4h-1l-4-10-2-6-7 3-2 2c-4-3-5 2-8 4l-1-6v-14l1-4-3-3-2 1-3-8c-2-2-7-3-4-8l-2-1q-6 1-8-4v-1h3l4-3-3-2-7-1-4-2 2-3q2-1 4 1l6 2 3-3-2-2q-6 0-5-4l-2-2q-9-8-21-6c-8 1-8 1-8 9v1l-2-1-4 1 1 1 4 1 1-2 2 2-3 3h-3l-15 5-4 2-3 6-3 3-3 1-5 5v4l-1 2-1 2-2 2-3 5q-6 13 0 26l2 4v2c-5 3 1 4 1 6l-2 1q3 7-4 9l-2 2 7 1c3-3 8-5 7-11s1 0 1 0l2 3 3 3 2 2 2 3 3 2 15 3v1l-2 4q-4-3-6 2 0 4 4 3l-3 4c-2-2-4-6-7-3q-6 6-14 4-4 0-4 4l-7-1v-4c5-3 4-12-2-16-2 3-1 9-7 9v6l-2 1-2-2v-7l8-5v-3l-6-2q-3 0-4 3-3 3-2 6h-2l-5-6h-1v-1l-1-1v-1q7-3 2-9l-2-4 3-3-2-3-3 3-2 1-2-3v-2l-2-5v-22l2-9 4-9-1-2v-1l1-5v-2l6-8 4-5 3-1 7-4v-1l-4 1v-4l4-1q7 1 6-6l1-1h5l10-5 9-3 2-2h4l18-2 12 2h3l-1 3h11l3 2-2 1h-6l4 4 2 1q3 3 4-2l4 2-3 3-1 2h3l2-1q4 1 2-3zm13 43-1-2q-7-4-7-13l-2-3-4 2 1 5 9 13 2 2zm-87 70q7-1 6-5c-1-2-10-5-11-4l-1 1c-1 2 3 8 6 8m51-115-6-3-1 2 3 2zm23 11 3 3 1-3-2-2zm-106 87-1 2 1 1 1-1z" class="cls-905"/><path d="m178 93-6 8v-1l1-1 3-7z" style="fill:#7fc09e"/><path d="M204 71h-5l1-2 6-3z" style="fill:#6bc091"/><path d="M210 62h4l-2 3-6 1z" class="cls-532"/><path d="M188 80v3l-3 4-3 1v-2l4-5z" style="fill:#6bc290"/><path d="m192 78-4 1 1-2 3-3 2-1-1 3z" style="fill:#b8d1c2"/><path d="m200 69-1 2-1 1-1 1h-2z" class="cls-632"/><path d="m186 81-4 5h-1z" style="fill:#92bea4"/><path d="M177 92q0-5 5-5z" style="fill:#d3dfd9"/><path d="M195 73h2l-4 3z" style="fill:#85c4a0"/><path d="M181 86v1h-1z" style="fill:#b0c7ba"/><path d="m295 432-2 1-1-1v-2q2-5 6-2l-2 3z" class="cls-163"/><path d="m325 381-1 7-2 1 1-5z" style="fill:#ced9d3"/><path d="m323 384-1 5v1l-3 1 2-7z" style="fill:#68c290"/><path d="M320 399q1 4-2 7l-1-2v-1z" class="cls-3"/><path d="m317 404 1 2-4 4v-3z" style="fill:#d8e2dc"/><path d="m320 399-3 4 1-4 1-3h1l1 1z" style="fill:#9fc9b1"/><path d="m313 412-2 4-3 1 1-3z" style="fill:#98c5ac"/><path d="m296 431 2-3h1l1-1h1q0 5-5 4" class="cls-87"/><path d="m300 427-1 1 1-5 2-1 2 1v1z" class="cls-668"/><path d="m313 412-4 2 5-5v1z" style="fill:#6ac492"/><path d="m307 422-3 1v-1l3-3 1-1v2z" style="fill:#c3d8cb"/><path d="m300 427 4-3-3 3z" style="fill:#96c4aa"/><path d="m321 397-1-1 2-4v-1l1 5z" class="cls-543"/><path d="m323 396-1-5v-1q3 3 1 6" style="fill:#f6f8f7"/><path d="M308 420v-3l3-1v2z" style="fill:#d8e4dd"/><path d="m308 420 3-2-4 4z" class="cls-10"/><path d="m305 191-7 6v-3h1z" class="cls-300"/><path d="m318 175-2 2h-1v-3l1-3h1z" style="fill:#d3dcd8"/><path d="m322 161 1 1-3 5v-1z" style="fill:#e8eae8"/><path d="m297 200-4 3h-3l3-3 1-1h3z" style="fill:#bed3c8"/><path d="M297 199h-3v-2l4-2v2z" class="cls-181"/><path d="m305 191-1-1v-1l5-3z" style="fill:#9cc7af"/><path d="m313 182-4 4v-1zh1z" style="fill:#ccdbd3"/><path d="m318 175-1-4 1-2h1z" class="cls-16"/><path d="M313 182v-1l2-4h1z" style="fill:#ebefec"/><path d="M320 166v1l-1 1v-2z" style="fill:#a5c6b5"/><path d="m177 412-1-1 2-2 7-4v-2l-2-1q-4 0-6 5c1-4-3-3-4-5l-3-3v-1q5 0 3-4l-2-9 3 1h2l1-1-2-2-4 2-3-4-2-1v-20l4 4 3-6 1-3 4-11-1-4-3 3-3-1v-1l1-7v-1l2-1v1l1 5 2-1-2-4q5-2 0-4v-1l1-1q5 2 5-6l7-7 3-3 4-4 1-1 10-5 2-4 1-1h1l3-1h6l5-1c1 1-1 7 3 4q5-5 9-1l3 1 10-3-2 5-3 2q-2-4-5 0l-2 1-16-2-16 5 8 4q4 2 4-2l3-3 3 4-2 8-5-1-3 2c4 6-1 8-5 10v3q5 1 0 4l-3 4c-4-1-1 2-2 3l-4-1-2-1q-1-5-6-1l-2-1q-4-2-1-6l3-4h-6l-5 2-2 1 2 2 4 2q1 8-1 15-3 6-1 11v18l1 6c-7 3-3 5 0 9l4 3 13 1 2-1-2-2q-3-2-2-6t-4-7l-4-7v-10q0-6 4-7 5-1 3-5l1-7 7 1-3 6-2 3 1 5h-1q-5-2-6 5-1 12 8 18l2 2 1 4-2 2h4l2 6c-5-2-3 4-6 5l3 2c3 3 8 3 7 8l3 2-1 2-5 1v3l6 1h1l6 1-2 1q-4-2-5 3c-1 4 3 2 4 3l3 4-3 3-5-2-12-6-2-4-3 3-2 3-4-2-6-6-1-2-4-6zm20 9q-1-11 9-6l3-1v-2q-4-6-13 0-5 4 1 9m3-17-4-2-5 5-1 3 3-1zm-22-33-3-4-2 3 2 4zm14 52-1 1 5 3 1-3zm14-1-2 3 3 2 2-1zm-5-90-3-2-2 3 2 2zm3 86-5 5 1 1zm-34-50h-2l1 3h1zm19 52 1-2-1-1-1 1zm16-85-1-2-2 1 2 1zm-28 60-1-2-1 2 1 1z" class="cls-905"/><path d="m188 314-7 7 2-5 1-1 3-2z" style="fill:#66c08c"/><path d="m187 313-3 2 5-6-1 2z" style="fill:#e1eae5"/><path d="m208 297-2 4h-5v-1l2-1z" style="fill:#76bc93"/><path d="m196 306-1 1-2 1h-3l5-4 1 1z" style="fill:#b7cec2"/><path d="m196 305-1-1 4-3v1z" style="fill:#b1ccbd"/><path d="m183 316-2 5h-1v-3z" style="fill:#95c2a7"/><path d="M190 308h3l-2 3h-3l1-2z" style="fill:#8bbea2"/><path d="M215 295h-3l2-1h1z" style="fill:#b5d5c4"/><path d="M212 295h1l-3 1z" style="fill:#a4c8b5"/><path d="M199 302v-1l2-1v1z" style="fill:#c2d8ca"/><path d="M210 296h-1z" style="fill:#abc6b7"/><path d="m176 179 5 6-1 1-2-2-3-4z" style="fill:#73c89b"/><path d="m187 193 2 2 2 3h-2l-2-2-3-3-2-2v-1l4 2z" style="fill:#b7d0c3"/><path d="m178 184 2 2v1l-1 1z" class="cls-10"/><path d="m179 188 2 2v2z" class="cls-20"/><path d="M189 198h1l2 3h-2z" style="fill:#ecf0ed"/><path d="m326 359 2 4v13l-3 4v-2l1-3z" class="cls-101"/><path d="M326 359v2h-1l-1-5v-1h2z" style="fill:#dbe5df"/><path d="M323 384h-1v-4h3v1z" style="fill:#87c1a0"/><path d="m174 332-2 1h-1l3-5h1v1z" style="fill:#cddad3"/><path d="M180 319v2l-3 3-1-1z" style="fill:#c6d6cd"/><path d="m176 323 1 1-1 3-1 1h-1z" style="fill:#e4ebe7"/><path d="M171 333h1zl-3 4z" class="cls-634"/><path d="M167 344v-4l2-2v1z" style="fill:#bcd2c4"/><path d="m279 442-2 1-1 1h-1v-3l7-1v1z" style="fill:#65c28d"/><path d="m270 448-1-1 2-2h2z" style="fill:#f2f3f3"/><path d="m279 442 2-1h2q-1 3-4 1" style="fill:#eff2f1"/><path d="M285 439h-2l1-1z" style="fill:#b1cdbc"/><path d="M283 441h-2v-1h2z" style="fill:#c1dbcb"/><path d="M171 108v1l-4 3 2-6 1-1z" style="fill:#82be9f"/><path d="M165 119v-2l1-2 1 5z" style="fill:#80b999"/><path d="m166 115-1 2q-3-3 2-5z" class="cls-5"/><path d="M162 125q-1-4 3-6l-1 3z" class="cls-11"/><path d="M172 101v2l-2 1v-2z" style="fill:#c0d2c8"/><path d="M138 261h-3l3-4h3v1z" class="cls-380"/><path d="m128 268-6 2 2-3h4z" style="fill:#a0c6b0"/><path d="M128 267h-3l2-3h2v1z" class="cls-518"/><path d="m127 264-2 3h-1z" class="cls-79"/><path d="M129 265v-1h1v1z" style="fill:#b2d0c1"/><path d="m280 210-3 2-4 1h-1v-2l4-2z" style="fill:#6fbe92"/><path d="m273 213 4-1q-3 5-9 3z" class="cls-120"/><path d="m280 210-4-1c1-4 4-1 6-1z" style="fill:#5cbf86"/><path d="m264 218-3-1v-1l3-1h2z" style="fill:#e6eae7"/><path d="M268 215h-2l1-3 4 1z" style="fill:#79bf97"/><path d="M305 224h2l1 1-4 3z" style="fill:#6bbc8e"/><path d="M305 224h-1l-5 1z" class="cls-105"/><path d="m308 225-1-1 1-1 2 1z" style="fill:#bbd0c4"/><path d="M308 225q4 3 7-2l4-2h4c2-1 6-1 4-5l2-1 6-1q5 3 6-4l2-3 2-1 6-6 6-6 1-3 4-3 3-4 2-1 2 1q1-5 3 0l3 1h3l-1-2-2-2-1-3h3l2-1v-8c0-3 0-9 2-10 4-3 1-5 1-8l4-1-4-11v-9l-5 1-3-1-2-4-1-3-2 2v3l2 4-3 9-1 2-1 1-3 3h-3l-3-6h1q6 3 8-3l1-9-3 1q0 7-8 9v1l-4-1 3-8 5 1-4-4-2 2-2 1c-2-1-3-6-7-3l-1-1q0-4 4-7l3-3h-1l-3 2-2 2-1-3v-1l8-9 5-5 4 3-3 1-3 2-2 3h4l5-1v5c-7-1-8 5-13 8v1h3l10-9 3 4 2 2 2-2 1-4 3 3 2 3 3-2 3-3 3 3 3 3 1-3 2-3 3 2 2 5q1-8 7-7l3 2-3 3q-6 0-3 6l1 9-3 1 1 1 2-2q7 2 3 8-1 3 1 4 3 2 1 6-4 5 2 7c-2 6-8 12-2 19v5l-1 3v1l-1 1q-6 0-5 5l-3 4-2 3q-4 2-3 6l-2 3h-1l-7-9-1 1 1 2c2 2 6 4 1 8l2 3v2l-5 5-4 2-2-3-2 7-1 2v1l-3 1-6 6-2 1h-4l-4-1-6 3-1 1q1 5-3 3-4 2 0 3l-1 2-1 1-1 1h-4l-2-2-2 2-1 2-1 1-3 1-4 1h-2l-5 3-2 1h-3l-4 1h-4l-12 2c-6-1-12-4-19-1l-1-3-1-5-5 3-2 2v-3q-2-3-5-1-4 4-9 0-3-3-5 1-2 5-5 1-5-6-11 0-2 4-5 0l-3-3-4 3q-3 6-9 4l1-1 4-2-5-4q-7-2-3-8l-1-9v-1h4l3 4 21 1 28-1q5 1 6-5l7-2v-1l5-1 8-1h2l5-2h3l8-3h3zm76-55v7q6 2 4 6l3 3c1-2 7 2 6-4l-1-14 2-4 4-2-1-2-3 2-4 1-1-4 3-2h3l2-3q-5-4-1-8l-1-4-3 2-4 9-2 3q-7 5-6 14m-36 42h3l6-6-1-1-6 4zm41-84-2 4 2 6 2-3zm6 7 2-1v-4l-2-1zm-30-10-1-2-2 2 1 2zm25 18 1-1-1-2-2 1zm-12-19-1 2 1 1 2-1z" class="cls-905"/><path d="M328 216c2 4-2 4-4 5h-4v-1l7-4z" class="cls-243"/><path d="m336 214-6 1 5-3z" class="cls-815"/><path d="m336 213-1-1 2-2h2z" style="fill:#76c498"/><path d="m281 72-4-2 2-2 2-2h1l2 2 3 2 1 1-4 2z" style="fill:#60d08f"/><path d="m275 66-3-2v-1l1-1 5 1 3 3z" style="fill:#6dc191"/><path d="m278 63-5-1-3-2q6-2 8 3" class="cls-142"/><path d="m270 60 3 2-1 1-3-1-2-1v-1z" style="fill:#a1c3af"/><path d="M269 60h-3v-1l-1-2z" class="cls-72"/><path d="m265 57 1 2-6-1v-1z" style="fill:#d3dbd7"/><path d="M71 371v-1l1 1v68l1 5v2l-2-2z" style="fill:#a7c0b3"/><path d="M71 371v73h-1v-68z" style="fill:#c8d3cd"/><path d="M70 444h1l2 2 5 1h31l-4 1H72z" style="fill:#d2dcd6"/><path d="m72 371-1-1v-5h2v6z" style="fill:#95c6ac"/><path d="M290 203h3l-6 3 1-2z" style="fill:#dde6e1"/><path d="m157 249 5-2 4 1-8 3h-1z" style="fill:#68c08c"/><path d="M157 249v2l-3 2h-4l5-4z" style="fill:#9dc4af"/><path d="m166 248-4-1 1-1h1l3-1z" style="fill:#92c0a6"/><path d="M320 341v-1q5 1 2 5l-1-2z" class="cls-133"/><path d="M323 348v5l-1-5v-2z" style="fill:#b1d4c0"/><path d="M322 346v2l-2-2 1-3 1 2z" style="fill:#8fbda1"/><path d="m168 158 2 3 1 5v1h-2l-2-3v-3z" style="fill:#6cc793"/><path d="m172 174-3-3v-2h2z" style="fill:#a9cbb8"/><path d="M171 169h-2v-2h2l2 3z" style="fill:#67c490"/><path d="M167 161v3l-1-1-1-5z" class="cls-627"/><path d="M225 449h-1l-5-1h6z" class="cls-85"/><path d="M215 446h2l2 2z" class="cls-136"/><path d="m352 200-6 6 2-4 1-2 2-1h1z" style="fill:#6ac091"/><path d="M352 199h-1l1-2z" class="cls-521"/><path d="m180 242 6-1h2c-1 5-5 2-8 3z" style="fill:#74be92"/><path d="M188 240h-2l3-3 1 2z" style="fill:#ebedec"/><path d="M212 234q3-4 7-1l-6 1z" class="cls-15"/><path d="m213 234 6-1h1v2h-7z" style="fill:#c2dbce"/><path d="M220 234h7v1h-7" style="fill:#d0d7d2"/><path d="M213 234h-6v-1z" style="fill:#d9e6df"/><path d="m168 245 2-3 3 1-3 2z" style="fill:#e2e6e4"/><path d="M168 245h2v1l-2 2h-2z" style="fill:#73b892"/><path d="m173 243-3-1 5-1v2z" class="cls-24"/><path d="m207 209-3-2-2-2q5-2 6 3z" style="fill:#6bc28f"/><path d="m201 205 2 2zv-1z" style="fill:#afcbba"/><path d="M74 351h-2c1-3-1-6 3-7v1z" style="fill:#eeefef"/><path d="M75 345v-3l2-2h1v4l-2 1z" style="fill:#8ac2a2"/><path d="m167 161-2-3v-3h1l2 1v2z" style="fill:#87c09e"/><path d="m166 155-1-1v-5h2v6" style="fill:#90c7a8"/><path d="M164 151v3l-2-5v-1z" class="cls-133"/><path d="M162 356v-1l2-3v4z" class="cls-97"/><path d="M164 355v-6h1v6z" style="fill:#d5e3db"/><path d="m228 290 7 1-8 2z" style="fill:#5bc589"/><path d="m220 293 5-3h1l-1 3z" style="fill:#86c09d"/><path d="M231 290h-2l4-3h1v2z" class="cls-133"/><path d="m225 293 1-3h2v3z" class="cls-741"/><path d="M291 227h3v2h-1l-4 1 1-3z" class="cls-543"/><path d="m290 227-1 3h-2v-1z" class="cls-101"/><path d="M287 229h-6v-1z" style="fill:#d7e7de"/><path d="M166 391h-2v-6h1l1 5z" class="cls-600"/><path d="M164 385v2l-2-4z" class="cls-12"/><path d="M223 57h2v2l-5 1z" style="fill:#eaeceb"/><path d="m225 61-2 2-4-3h1z" style="fill:#5abe84"/><path d="m215 62 1-1h1l-1 1z" style="fill:#b5c9bd"/><path d="M219 60v1h-2z" style="fill:#b7cbbf"/><path d="M205 278h-1l1-2h3z" class="cls-10"/><path d="m219 215-5-3-2-2 2-1 4 1 3 2v3z" style="fill:#63c68c"/><path d="M221 215v-3l6 2-4 1z" style="fill:#60c08a"/><path d="M222 215h1l1 1 1 2z" class="cls-7"/><path d="M320 220v1l-4 2-1-1 1-1 3-1z" style="fill:#7bbc99"/><path d="M198 278h-2l5-3v1z" style="fill:#85b99b"/><path d="M150 253h3l-5 3h-3v-1l2-2z" style="fill:#72c094"/><path d="M145 255v3h-4v-1z" style="fill:#7cb996"/><path d="m164 385-2-2v-6h2l1 6v2z" class="cls-629"/><path d="M163 377v-15h1v15" style="fill:#cfdbd3"/><path d="M163 362v-6h1v6" style="fill:#e3e7e4"/><path d="M235 219h5v1h-5" style="fill:#e5efea"/><path d="M247 232h1zh-19v-1z" style="fill:#d2ded8"/><path d="M229 232v1h-7z" style="fill:#e4e8e5"/><path d="m228 273-8-1 3-2h11z" style="fill:#5dc28a"/><path d="m228 273 5-3h11v1l-9 1-5 1z" style="fill:#70bd91"/><path d="m230 273 5-1h14v1z" style="fill:#bad9c8"/><path d="m219 272 8 1v1h-8z" style="fill:#97cfb0"/><path d="M249 273h14v1h-14" style="fill:#c2d8cc"/><path d="m121 328 2 1-2 4v1h-2z" style="fill:#7bc099"/><path d="M234 289v-2h17v2z" class="cls-532"/><path d="M251 289v-2h6v2z" class="cls-629"/><path d="M162 144v-13h1z" style="fill:#cdd9d3"/><path d="M163 131v-6l2-3v4z" style="fill:#dce0de"/><path d="m162 144 1 1v6l-2-3z" style="fill:#d9dfdb"/><path d="m203 429 12 6 5 2 3-3-3-4c-1-1-5 1-4-3q1-4 5-3l2-1h31l4-1 8-6q4-2 4 2 2 8 9 3h2l-1 3q-5 3 1 5l8 3v1l-2 1c-4-3-12-3-16 1-5 5-11 1-17 3-4 2-9-1-13-1q-6-1-8 4l-5 2c-3-4-5 0-7 1h-2l-1-2-6-4-9-5-3-2z" class="cls-905"/><path d="m228 443 5-2q2-5 8-4c4 0 9 3 13 1 6-2 12 2 17-3 4-4 12-4 16-1l-3 5-1 1h-2l-7 1-3-1v2l-2 2h-2l-5-2-11 2v-1l-4-1v1l4 1v1h-16z" class="cls-905"/><path d="M289 433v-1l3-2v2z" style="fill:#62d195"/><path d="m114 342 1-3 2 1v1l-2 4-1 1z" style="fill:#6cc492"/><path d="m117 340-2-1 4-4v1z" style="fill:#69c895"/><path d="M119 336v-2h1z" style="fill:#97c5a9"/><path d="M237 55h12l1 1-11 1h-4z" style="fill:#d7dcd9"/><path d="M231 57h4l-6 3-2-1z" style="fill:#78b895"/><path d="m231 57-4 2h-2v-2z" class="cls-409"/><path d="m352 199 6-4-6 6z" style="fill:#69bf90"/><path d="m228 443 7 2h16l4 1v1h-3l-19 1h-2l-4-1-6-3c2-1 4-5 7-1" class="cls-796"/><path d="m221 444 6 3h-4l-4-2v-1z" style="fill:#6ec390"/><path d="M231 448h8v1z" style="fill:#7eb494"/><path d="M232 449h7v1h-2z" style="fill:#a8c8b5"/><path d="M223 447h3l-1 1h-4v-1z" style="fill:#b7d5c4"/><path d="M207 235h5v1h-7z" style="fill:#aec9bb"/><path d="m200 237 5-1v2h-5z" style="fill:#95c8ab"/><path d="M200 237h-7l2-1z" style="fill:#b1d5c3"/><path d="M250 219h-2l-8-1v-1h10z" style="fill:#9aceb2"/><path d="M250 219v-2h9l-7 2z" style="fill:#b2d7c2"/><path d="M248 219h-8z" style="fill:#e4e8e6"/><path d="m248 233 12 1h-12" style="fill:#cadad1"/><path d="M260 233h7v2h-2z" style="fill:#bcd6c9"/><path d="m336 213 3-3 1-1 2 1q-1 7-6 4z" style="fill:#65d191"/><path d="m342 210-2-1 3-2h1z" style="fill:#69c190"/><path d="m315 222 1 1q-3 5-7 2l1-1z" style="fill:#68c18e"/><path d="m320 346 2 2 1 5v1h-2l-2-8z" style="fill:#6ac691"/><path d="m322 354 1 1v1l-1 3v1h-1z" style="fill:#7dc49c"/><path d="m328 257 1-1 5-1-4 3z" style="fill:#85bf9e"/><path d="M319 259h6v1l-2 1h-2z" style="fill:#7bc599"/><path d="m328 257-3 1v-1z" style="fill:#8dc0a3"/><path d="M320 166v-6l3-4v5z" style="fill:#7cbf99"/><path d="m324 150 1 1-3 5v-1z" style="fill:#cfd9d3"/><path d="m288 204-1 2-5 2q2-4 6-4" style="fill:#6dc091"/><path d="M267 234v-2l5-1v2z" class="cls-432"/><path d="M272 232h7z" style="fill:#b9cec2"/><path d="M236 57h3l11-1 2 1v1z" style="fill:#8ecaa8"/><path d="M252 58h2l5 2v1l-7-1z" style="fill:#6bba8c"/><path d="m259 59-5-2h6v1z" style="fill:#b6d3c2"/><path d="m212 210 2 2-2 1-3-1-1-2z" class="cls-518"/><path d="M211 210h-3l-1-1v-1q4-2 4 2" style="fill:#6ec090"/><path d="M219 272v2h-5v-2z" style="fill:#89c9a5"/><path d="M218 274h6z" class="cls-108"/><path d="M190 201h2l1 1 1 1v2q-4 0-4-4" class="cls-116"/><path d="M166 391v-1l2-1q4 3 2 8l-3-4z" style="fill:#67c994"/><path d="m167 393 3 4v1l-3-1z" style="fill:#93bea6"/><path d="M173 243h2l5-1v2l-3 1-4 1h-3v-1z" style="fill:#6cc193"/><path d="M322 121v-2l3 2v3h-2z" style="fill:#ccd8d1"/><path d="m321 113 1 1v5z" style="fill:#84b79c"/><path d="M239 450v-1h11v1z" style="fill:#97c6ac"/><path d="M250 450h6l1 1h-7" style="fill:#abc7b8"/><path d="M220 293h4v1l-5 1h-4v-1l1-1z" class="cls-749"/><path d="m257 450-1-1 3-2h5l-1 1z" style="fill:#9fc9b2"/><path d="M261 216h-1l-6-1v-1z" style="fill:#68be8c"/><path d="m254 216 5 1h-6v-1z" style="fill:#7eb795"/><path d="M272 271h-4v-2h12v1z" style="fill:#7ec9a0"/><path d="m272 271 9-1v1z" style="fill:#bddbcb"/><path d="M268 272h-5l-2-1h7z" style="fill:#abc2b5"/><path d="M200 276v-2h3l4 1v1z" style="fill:#80c79f"/><path d="m207 275-4-1 2-2h5l-1 3z" class="cls-910"/><path d="m209 275 1-3h4v2z" style="fill:#77be95"/><path d="M284 68h2z" style="fill:#b3d3c1"/><path d="m173 170-2-3v-1h2l3 1q5 6-2 9l-1-1z" style="fill:#5ecf90"/><path d="M173 170v5l-1-1-1-5z" style="fill:#80c09d"/><path d="M205 440v-1l8 5-2 1h-1z" style="fill:#7cc09c"/><path d="m272 232 7-1h1v2h-8z" style="fill:#8fccab"/><path d="M281 230h6v1h-7z" style="fill:#a4c9b4"/><path d="m319 259-3 2h-2z" style="fill:#67c78f"/><path d="m316 262 3-2 2 1-3 2z" style="fill:#97c1a9"/><path d="m318 263 3-2h2l-2 2z" style="fill:#d4ddd9"/><path d="M165 353v-4l1-1 1-2 1 2v3z" style="fill:#81bb9a"/><path d="m167 346-1 2 1-4z" class="cls-555"/><path d="m267 292 1 1-5 3-9 1-5-2-5-4h10l8 2 4-1z" style="fill:#5fcf8f"/><path d="M279 296v1q-4 7-10-1v-3h1l4 2c1 2 2 5 4 1z" style="fill:#62d390"/><path d="M269 293v3c-2 1-4 4-6 0z" class="cls-905"/><path d="M267 292h-1l-1-1h1z" style="fill:#b4cbbd"/><path d="M320 346h-1v-5h1l1 2z" style="fill:#7dc69a"/><path d="M73 371v-5l1-13h-1l1-1h2l-2 28h-1z" style="fill:#6ac493"/><path d="M76 352h-2v-1l1-6h1z" style="fill:#8ac5a5"/><path d="M73 365h-2v-5l1-1h1z" class="cls-432"/><path d="m73 359 1-6h1z" class="cls-569"/><path d="m200 274-5 3h-2l-3-1z" class="cls-35"/><path d="m190 277 3 1-2 1h-3z" style="fill:#8ec8a7"/><path d="m463 123-2 5h-1v-5l-1-1 3-1z" style="fill:#7cb79a"/><path d="M264 447h-2l4-3h3l2 1-2 2z" style="fill:#7ec09a"/><path d="M211 210q0-4-4-2-1-5-6-3h-1l-1-1-1-1-2-4-1-4 2-3 3 3v4l7 1 13 3v2l-4 1c-5-1-3 1-2 3z" class="cls-851"/><path d="m198 203 1 1-5-1-1-1 1-1z" style="fill:#d0dbd5"/><path d="m213 443-8-5-9-6v-1l2-3 3-3 2 4-3 2 3 2 9 5 6 4-3 2z" style="fill:#60cf8f"/><path d="m215 444 3-2 1 2v1h-2z" class="cls-198"/><path d="m217 445 3 2v1h-2z" style="fill:#d7ded9"/><path d="M213 443h-2z" style="fill:#c6d5cd"/><path d="M291 269h-3v-2h2l3 1z" style="fill:#86c7a2"/><path d="M281 270h-1zh7z" style="fill:#acc8b8"/><path d="M180 244c3-1 7 2 8-3l2-1h1l1 1 6 1-15 7z" class="cls-888"/><path d="m192 240 2-1h8v1z" style="fill:#74c196"/><path d="m262 293-8-2 6-1 2 1z" style="fill:#5bc086"/><path d="M262 293v-2h3l1 1z" style="fill:#77bb93"/><path d="M215 62h1l-2 3h-2z" style="fill:#6eb88f"/><path d="m292 268-3-1v-1l12-2v3h-1l-6 1z" style="fill:#69c58f"/><path d="m294 268 6-1-4 1z" style="fill:#80ba99"/><path d="M294 268h2v1h-5l1-1z" style="fill:#dde7e1"/><path d="M301 266v-2h4l1 1z" style="fill:#7bc69c"/><path d="m225 218-1-2h3l1 1v1z" style="fill:#d9e0dc"/><path d="M240 217v1h-6v-1z" style="fill:#aad8bf"/><path d="M234 217h-6v-1z" style="fill:#bfd8ca"/><path d="m420 146-1 7h-2l1-5v-2z" class="cls-92"/><path d="m418 148-1 5v2l-1 1-1-5z" style="fill:#74b790"/><path d="m416 156-1 6-1-1z" style="fill:#d3dcd6"/><path d="M200 276h5l-1 2h-6z" class="cls-555"/><path d="m260 290-6 1h-2v-1l3-1h2z" style="fill:#7bc89c"/><path d="M294 229v-2h6v1z" style="fill:#b4d6c5"/><path d="M300 227h-1zl5-1z" style="fill:#b8ccc1"/><path d="M323 124h2v6h-1l-1-4z" style="fill:#a8c2b3"/><path d="m385 76-4 2v-2l4-4z" style="fill:#64bb8a"/><path d="M381 76v2l-3 3h-1l-1-1z" style="fill:#84bb9c"/><path d="m391 66-4 4 4-5z" style="fill:#6ec393"/><path d="M391 66v-1l2-3h2z" style="fill:#6ec293"/><path d="M326 145h-2v-1l1-13 1 1z" style="fill:#c3dace"/><path d="m325 131-1 13v-14z" style="fill:#8cbfa4"/><path d="M326 145v-13z" class="cls-136"/><path d="m358 103-5 5-1-1v-1l4-4h1z" style="fill:#66c58f"/><path d="M373 86c-1 5 0 9-5 13-3 3-4-1-6-2l1-1 3-3 1-2h1l3-3z" style="fill:#5ece8f"/><path d="m378 148-1-10 1-2 1 6z" style="fill:#e5e8e7"/><path d="m378 149 1-1 1-5v-2h1v8z" style="fill:#79c99b"/><path d="M374 139h-1l4-5-2 4z" style="fill:#6bbc90"/><path d="m375 138 2-4h3v1l-2 1-1 2z" style="fill:#92baa3"/><path d="M378 149v2h-1z" style="fill:#8abb9e"/><path d="m353 139 4 1 1 1 3 6-1 1q-1-7-8-8v-1z" style="fill:#64ce95"/><path d="M352 139v2l-4-3z" style="fill:#c7dace"/><path d="m353 139-7-5v-1l-5-5-2-2h1l6 1 1 1q3 8 7 3l2-1 1 1z" style="fill:#60cc8f"/><path d="M379 151v-2l2-1 2 3c0 3 3 5-1 8-2 1-2 7-2 10v8l-2 1h-3l1 3 2 2v2h-2l-3-1q-1-5-3 0l-2-1v-4l3-5 2-3 2-5 1-1 2-5v-4q4-2 1-5" style="fill:#5ece8e"/><path d="m373 171-2 3v-1l1-5z" style="fill:#73b990"/><path d="M404 60v1h-2l-4-2 4-1 1 1z" style="fill:#6ebf94"/><path d="m366 184-3 4-1-1 1-2v-1z" style="fill:#6bbe91"/><path d="m360 148 1-1h3v2z" style="fill:#77b790"/><path d="m345 127-6-1 2-6 4-2 1 3 2-2 3-3 1 1-3 3q-4 3-4 7" class="cls-905"/><path d="m341 120-2 6h-1l-1-4 1-2 3-2z" style="fill:#75c196"/><path d="m377 134-4 5-4 2 3-9 3-2 3 1v1z" style="fill:#61ce90"/><path d="M324 141v4l-1 3-1-2 1-5z" style="fill:#6fac8a"/><path d="m324 150-2 5v-2z" style="fill:#90c4a5"/><path d="m376 165-1 1h-1l1-5v-1h1z" style="fill:#76bc96"/><path d="M376 165v-5h2z" class="cls-905"/><path d="M341 250q-4-1 0-3 4 1 3-3l1-1 6-3 4 1v3l-6 3z" style="fill:#60d190"/><path d="M384 219v-2l4-3v1l-1 2z" class="cls-685"/><path d="M399 196q-1-5 5-5l-3 6-1 1z" style="fill:#69c38f"/><path d="M406 181c-6-7 0-13 2-19q4-6 2-14l1-6 4 7v2l-1 5-2 6v4l-3 9-1 5v1z" style="fill:#5ecf8f"/><path d="M406 181h2l-1 4v1h-1z" style="fill:#68bd8b"/><path d="M407 186v-1 2z" style="fill:#c6d7cd"/><path d="m409 175 3-9h2l-1 3-2 6v1z" style="fill:#6bc490"/><path d="m334 255-5 1 1-2h5z" style="fill:#71cb97"/><path d="M336 254h2z" style="fill:#a5c7b5"/><path d="m367 234 3-1v1l-5 3z" style="fill:#88bfa0"/><path d="m389 212 2-3h1v1z" style="fill:#72c495"/><path d="m370 232 1-2 3-1v1z" style="fill:#70c493"/><path d="M413 166h-1v-4l2-2h1z" style="fill:#64bc8c"/><path d="M355 244v-3l3 2-2 1z" style="fill:#60c189"/><path d="m388 214-4 3-2-3c5-4 1-6-1-8l-1-2 1-1 7 9z" style="fill:#5fd18f"/><path d="M416 144q-4-8-1-14 2-5 6-2l5 5-1 2-2-1-5-3-1 4v1z" class="cls-847"/><path d="m453 116 2 2c-4 5-4 5-8 0l-2-1-2-2 1-2 3 2 4 3z" class="cls-888"/><path d="m423 134 2 1 8 11-5-3-6-6v-3z" style="fill:#70bb90"/><path d="m438 97 3 3 3 5-3-1-6-6v-2h2z" style="fill:#64c58f"/><path d="m399 76-6 4-2-1 3-5z" class="cls-796"/><path d="M385 76v-4l3 2v3z" class="cls-839"/><path d="m430 129-2 1-3-2 2-2z" class="cls-847"/><path d="M402 61h2l3 4h1v1q-5 1-6-5" style="fill:#64bf8a"/><path d="m416 144 1-8v9h-1z" style="fill:#68d196"/><path d="M416 145v3l-2 3v-2z" style="fill:#61bf8a"/><path d="M437 96h-2l-2-3z" style="fill:#88c2a2"/><path d="m430 89 3 3v1l-5-4z" style="fill:#6dc694"/><path d="m441 144-1 3h-3z" class="cls-46"/><path d="M460 123v5h-1z" style="fill:#66c391"/><path d="m457 129-2 4h-1z" style="fill:#69c091"/><path d="m435 98-1 2-1-2z" style="fill:#63d795"/><path d="m110 371 1 3v66l-1 5z" style="fill:#c7dfd1"/><path d="M111 440v-66h1v61z" style="fill:#f2f3f2"/><path d="M73 446v-1h37v1z" style="fill:#8fbfa4"/><path d="M111 365v2l-1 1h-1v-5l1-8 1-1h1l1 1-1 5z" style="fill:#6cc392"/><path d="m113 355-1-1 2-5v3z" style="fill:#87bc9d"/><path d="M109 368v3l-1 6v67h-1v-73z" style="fill:#65b889"/><path d="m114 349-1-4 2-1v5" style="fill:#60be87"/><path d="M319 114h-4l-2-2v5l2 2-1 4-2-3-3-3-1 4-3 3-2-4 6-8 2-4-3-4-2 3-3 4-1-5-1-4-2 5-2-8 2-3 3 1 1 1q4 7 10 1h1v3q-2 6 3 8z" class="cls-905"/><path d="M317 110q-5-3-3-8l4 4z" style="fill:#60cf91"/><path d="m320 123-1-5 3 3v1zm-10-27q-2 3-5 0l-5-4-3-1 3-2 2-1 1-3 4 3 2 3v1z" class="cls-905"/><path d="m310 96-1-4 2 2 1 3z" style="fill:#6bc491"/><path d="M318 103v1l-3-4z" style="fill:#88bea1"/><path d="M289 73v-2h1l1 1z" style="fill:#81be9b"/><path d="M284 68h2l1 1v1z" style="fill:#84bc9e"/><path d="m111 354-5-2-3 1-3 1 1-3 4-5 3 2c-2-8-2-8-8-6q-5 1-6-4l-1-4 3-15c5-2 3-6 2-9v-3l1-3 5 5-1 7c-5 3-2 4 0 7q3 2 3 5l-4 2-6 2 1 3 3 1q6-3 7 2l4 6z" class="cls-905"/><path d="M214 272h-9l11-4 18-1 16-2q5-1 7 4h-14l-13 1h-8l-3 2zm-41-26 4-1q3 4-3 5-10 2-18 9c-1 1-1-5-4 0q-3 3-7-1l3-2 5-3h1l4-2 8-3h2z" class="cls-888"/><path d="m114 344-2 1-1-1-1-4c-2-8-2-9 5-14h2v5l-3 7z" class="cls-905"/><path d="M97 311c1 3 3 7-2 9q2-7-6-8l1-3 1-1 1-1h1l3-4 2 2-1 3q-3 2 0 3" class="cls-888"/><path d="M289 266h-2l-7 1-5-1-6 1 1-3c7-3 13 0 19 1" class="cls-829"/><path d="m106 288 1-2 4-1-13 16 3-7 2-2z" style="fill:#62cf91"/><path d="m189 277-1 2-4 2-1 1-5 1h-3v-2z" class="cls-35"/><path d="m175 281-4 2-2 1h-4q4-9 10-4" style="fill:#61cf90"/><path d="m148 297-1 1-5 5-2 2-2 2v-1q1-7 10-9" style="fill:#64cb90"/><path d="M254 269h14v2h-2l-5-1z" style="fill:#6cc695"/><path d="M138 306v1l-1 2-3 3-1 1h-1z" style="fill:#66bf8d"/><path d="m96 303-3 4v-1l-1-3 4-3z" style="fill:#6ec493"/><path d="m111 344 1 1 1 4-1 5h-1z" class="cls-172"/><path d="m130 265 2-1 2-1 1-1h1q0 6-6 4" style="fill:#68c691"/><path d="m112 278 1-1 3-1h2l-3 4h-3z" style="fill:#7ac19b"/><path d="M96 301v-2l4-5h1l-3 7z" style="fill:#6bca96"/><path d="M165 285h4v2l-3 1h-1l-1-1z" style="fill:#79bd97"/><path d="m192 240 9-1v1l-3 1z" class="cls-54"/><path d="M141 258h3l-6 3z" style="fill:#61c38a"/><path d="M268 269h-1l2-1 6-1-3 2z" class="cls-905"/><path d="m115 280 3-4h2z" style="fill:#62cf93"/><path d="m128 320-4 2zm-4 2v2l-2 2z" style="fill:#60c389"/><path d="m111 285-4 1v-1l4-2z" style="fill:#6bc392"/><path d="m133 313 1-1 2-1v2l-3 2z" style="fill:#c7d7ce"/><path d="m136 311-2 1 3-3z" style="fill:#8dbfa5"/><path d="M169 287v-2l2-1h2v2z" style="fill:#87c6a2"/><path d="M165 288h1z" style="fill:#c4d6cc"/><path d="M173 284h-2l4-2v1z" style="fill:#74bd94"/><path d="m78 334 1-1-1 6z" style="fill:#87baa0"/><path d="m77 340-2 2 2-5z" style="fill:#dde5e0"/><path d="M77 340v-3l1-2v5z" style="fill:#b0d2c1"/><path d="m92 304 1 2h-1z" style="fill:#9dc7b0"/><path d="m82 323 4-4v3l-2 5-1 1z" style="fill:#7abe97"/><path d="m83 327 1-1 2-1-3 6-1-3z" class="cls-905"/><path d="m82 328 1 3-1 2h-1l-1-2v-2z" style="fill:#64c38b"/><path d="m80 331 1 2-3 9v-3l1-6z" style="fill:#6ac593"/><path d="M86 320v-3l1-3 1-2h1l-1 7z" style="fill:#69c890"/><path d="m106 288-3 4v-2z" class="cls-935"/><path d="m319 345-2 3-4 7 7 2-1 8-1 3q1 9-8 8l-2 3 3 3h9l-3 7-3 2v-6l-3 1q0 2-2 1c-4 0-9-11-7-15q3-5-2-6l-1-4c4-4 4-4-1-8v4l-3 1 2-8 5 1 3 7 3 3 2-3-6-12-9-9-7-2-2 4q1 3 5 2h2l2 5-3 1-7 1-1-3q1-7-6-8h-1v-1l3-3c4-2 3-7 1-7q-5-4-1-7v-3l2 2 3 2 1-2 2-4 2 3 2 3 2-2 3-3 7 9-1 4-4 5-1 3 6 4 6 2q3 5 5 0l1-4z" class="cls-905"/><path d="m304 326-7-9-3 3-2 2-2-3-2-3-2 4-1 2-3-2-2-2v3q-4 3 1 7 4 3-1 7l-3 3-8-4-1-1-2-4 1-2c2 3 3 7 8 3l2-2h-3q-4 1-4-3l-1-3q1-6 6-5h2c0-5 5-4 7-6l2-3h-3l-4 2-2-5-3-4-8 2q-8 1-12-6l9-1c2 4 4 1 6 0q6 8 10 1h1l2 2 2 2v1l-2 1 1 2 3-2h2l4 3 2 3 4 4 6 8zm11 18q-2 4-5 0l-6-2-6-4 1-3 4-5q-1 3 3 3l5 3q4 1 1 5z" class="cls-905"/><path d="m304 321-6-8h1l3 2 4 6z" style="fill:#66d092"/><path d="m319 345-3-5h1l2 1z" style="fill:#5cc085"/><path d="m313 327-4-4v-1z" style="fill:#7bc29a"/><path d="m302 315-3-2v-2h1l2 2z" style="fill:#7ebf9b"/><path d="M276 294h-2z" style="fill:#b7d5c5"/><path d="M297 307v1l-4-2v-1z" style="fill:#aecdbc"/><path d="M288 303h-2l-2-1v-1h4z" style="fill:#66c28c"/><path d="m293 306 4 2 2 3-5-2-2-3z" style="fill:#79c099"/><path d="M274 295h3l1 1c-2 4-3 1-4-1" style="fill:#68c28f"/><path d="m170 399 3 3-1 2h-1l-1-3z" style="fill:#6dbc8c"/><path d="m185 421 1 2v2h-1l-4-4-1-2z" style="fill:#84c09d"/><path d="M186 425v-2l6 6-1 1h-1l-3-3z" style="fill:#86c3a0"/><path d="M170 399v2h-1l-1-4 2 1z" style="fill:#b4ccbe"/><path d="M421 138h1z" style="fill:#e0e5e2"/><path d="M459 128h1l-3 3z" style="fill:#c5d7cc"/><path d="M422 137h-1l-1 1-2 1-1-1v-3h1l4-1z" style="fill:#88b79b"/><path d="m418 139 2-1v8h-1l-1-6z" class="cls-409"/><path d="M220 205v-2l12 1-3-4h8v-2l-4-2-1-1 3-4 2-5 2-4q5 3 10-1h5l4-3h2l3 2 8-3 8-9q5-2 5 3l-3 8-1 3 3-1 3-1 10 3h3v3q-2 4 0 6v2h-1q-2-3-4-1c-1 1-4 3 0 4v2l-1 1-4 3-1 1q-4 0-6 4c-2 0-5-3-6 1l-4 2-6-1-6 2h7l-1 3h-35v-1l6-1q1-6 7-7v-2l-1-1-7 3c-2 6-6 4-9 4l-6-3zm35-4v-3l-8-3 2 4-1 1 4 4zm64-41v2l-3 2 3 3v1l-1 1-6-4-3-2-2 4 3 3 6 1-1 3-2 3-1 2-3 3-1 2c-3-4-4 0-6 1l1-6q-1-5-5-4l-2-2 2-3q5 0 4-3-2-3-5-3h-8l-3-8v-4l3 4 4 2 1-3-2-3-4-2v-22l2-1 2 6 2 2 1-2-1-4c-6-5-4-11-4-17l3 8 4 6v10c-4 1-1 3 0 4l1 6q0 5 6 3l4 1-2 3c-4 5-4 5-8 0-1 0-3-4-3 0l1 6h2c4-1 6 5 9 2h8l-2-3-2-4 5-1 3 3zm-27-16h-1v3l1 1zm-46-61v-1c0-8 0-8 8-9q12-2 21 6l2 2q0 4 5 4l2 2-3 3-6-2q-2-2-4-1l-2 3 4 2 7 1 3 2-4 3h-3l-19-6 4-3-5-2-8-2z" class="cls-905"/><path d="M298 153c4 5 4 5 8 0l2-3-4-1q-6 2-6-3c3-2 4-7 8-4l2-2 7-3 2 6 4 10-2 3-3-3-5 1 2 4 1 3h-7c-3 3-5-3-9-2zm-66 42 1 1q3 2 0 4h-4l3 4-12-1-13-3q0-4 4-4 8 2 14-4c3-3 5 1 7 3" class="cls-905"/><path d="m256 87 5 2-4 3 19 6v1l-1 5h-2l-8-6-10-4h-3q-8-5-16 0h-2l-7-1 15-5c3 3 12 3 14-1" class="cls-885"/><path d="m275 104 1-5q3 5 8 4l2 1c-3 5 2 6 4 8 0 6-2 12 4 17l1 4-1 2-2-2-2-6-2 1-2-1v-4c4-4-2-14-8-16zm-75 91-3-3-6 1v-5c6 0 5-6 7-9 6 4 7 13 2 16m101-81-2 4-2-2-10-18 4-2 2 3q0 9 7 13zm-90 51c1 6-4 8-7 11l-7-1 2-2q6-2 4-9l2-1h2zm-28 20 2-6q1-3 4-3l6 2v3l-8 5-2 1zm31-1c-3 0-7-6-6-8l1-1c1-1 10 2 11 4q1 4-6 5" class="cls-905"/><path d="m227 93 7 1-10 7-2 1-2-1 3-6z" class="cls-890"/><path d="M275 66h2l2 2-2 2q-1 5-4 2l-2-1-4-4h6z" class="cls-905"/><path d="M173 166h-2l-1-5 2-1 3-3 2 3-3 3z" style="fill:#5fd08f"/><path d="M202 151q-6-13 0-26v5q-4 6-1 13h1v4l1 4z" class="cls-181"/><path d="m237 186-2 5q-4 1-4-3 1-5 6-2" class="cls-905"/><path d="M256 87c-2 4-11 4-14 1h3z" class="cls-890"/><path d="m281 72 3 1q2 4-2 3l-2 1h-3l1-2z" class="cls-905"/><path d="M212 65h2v1l-10 5 2-5z" class="cls-171"/><path d="M252 58v1h-5l-18 2v-1l6-3h1z" style="fill:#64c58e"/><path d="M164 149v-21h2v21z" class="cls-935"/><path d="m235 181-11-3v-2h6l2 2z" style="fill:#69c18f"/><path d="M235 181h3l11-1h5v2h-19" style="fill:#76c698"/><path d="m322 137-5-3 6-2z" class="cls-905"/><path d="m256 87-11 1 3-3z" class="cls-885"/><path d="m297 126-4-6 2-1 3 3z" class="cls-905"/><path d="m166 115 1-3 4-3 1 2-4 9h-1z" style="fill:#68c692"/><path d="m214 66 2-3 1-1h2l4 2z" style="fill:#5fc58f"/><path d="M207 163h-2c0-2-6-3-1-6l3 3z" class="cls-839"/><path d="m265 69-4 1-3-2 1-2z" class="cls-905"/><path d="m193 76 4-3 1-1q1 8-6 6z" class="cls-163"/><path d="m191 193 6-1-2 3h-2l-2-1z" style="fill:#5fd38f"/><path d="m288 80 2-2 2 2-1 3z" class="cls-905"/><path d="M239 181h10q-5 4-10 1z" style="fill:#56c284"/><path d="M247 59h5l7 1v1z" class="cls-905"/><path d="m185 87 3-4 4-1v1z" style="fill:#63d390"/><path d="M322 137v-7l1 2v9l-1 5z" style="fill:#61be88"/><path d="m246 83-1 2-4-1-1-1 4-1z" class="cls-890"/><path d="M265 64h-4l1-3h2z" class="cls-905"/><path d="m214 168-2-3 3 1 3 3 1 2h-2z" style="fill:#a7c7b5"/><path d="m207 160-3-3v-2l2-3v1q-3 4 2 5l1 2z" class="cls-815"/><path d="m185 187 2-1v7l-1-1-1-3z" style="fill:#62cd92"/><path d="M185 187v2h-3l-2-2v-1l1-1h2z" style="fill:#65c08c"/><path d="M167 120h1l-2 9v-1z" style="fill:#5cbe85"/><path d="M229 60v1h-4l-5-1 5-1h2z" style="fill:#78c597"/><path d="m265 64 3-1 3 1v1z" style="fill:#63cf91"/><path d="m220 101 2 1-4 3h-1v-1z" style="fill:#9fc3af"/><path d="m209 110 5-5v2l-1 2z" style="fill:#5dc48b"/><path d="m319 156 2-3h1v3l-3 4z" style="fill:#66be8b"/><path d="M181 87v1l-4 5-1-1z" style="fill:#83bf9f"/><path d="m209 110 4-1-1 2-1 1-1 1v1h-1z" style="fill:#6ebe94"/><path d="m320 123 2-1v6z" style="fill:#62d291"/><path d="M297 140c-1-1-4-3 0-4zm-124 26 1-3 2 4z" class="cls-905"/><path d="m202 126 3-5v1l-1 4z" style="fill:#69ba8e"/><path d="m221 176-2-3 1-1h1l3 4z" style="fill:#6cc290"/><path d="m191 194 2 1v1l-1 2h-1l-2-3z" style="fill:#67c590"/><path d="M264 61h-5v-2l7 1h1v1z" style="fill:#76c497"/><path d="m206 152-2 3-2-4h3z" style="fill:#65bc8a"/><path d="m170 105 2-1-1 5z" style="fill:#6fbc92"/><path d="M322 128v-2h1l1 4v2h-1l-1-2z" style="fill:#70b58e"/><path d="M166 155v-4l2 5z" style="fill:#6fbd90"/><path d="m182 167 1 2-1 1-1-1z" class="cls-905"/><path d="m220 172-1 1-2-2h2z" style="fill:#7bbf98"/><path d="M221 176h3v2z" class="cls-905"/><path d="M214 107v-2l3-1v1z" style="fill:#79c098"/><path d="m205 121 2-2v1z" style="fill:#a3c3b2"/><path d="M207 119v-1l1-2z" style="fill:#b8d5c5"/><path d="M211 165v-2h1zv1z" style="fill:#87bda0"/><path d="m285 350 7-1 3-1-2-5h-2q-4 1-5-2l2-4 7 2 9 9 6 12-2 3-3-3-3-7-5-1-2 8 3-1v-4c5 4 5 4 1 8q-1 3 1 4 5 1 2 7c-2 3 3 14 7 14q2 1 2-1l3-1v6l3-2 3-7 1 1-2 7v4l-2 4-3 8v2l-5 5h-1l-2-12-4 8q2 5-3 9-3 2 1 4l-1 5h-1q-4-3-6 2l-3 2-8-3q-6-2-1-5l1-3h-2q-7 5-9-3 0-4-4-2l-8 6-4 1h-31l-6-1q2-4-2-5l6-2c3 4 4 0 6-2l9 2q0 4 3 3l6-4h-2v-1h9l5-2h3q6 1 8-5 7 0 10-8v-1l3-4 2-4 3-7 2-7v-11l-2-8v-2zm-52 67-2-1-1 1 1 1z" class="cls-905"/><path d="M319 395v-4l3-1v2zh-1z" style="fill:#75c298"/><path d="m321 384-1-1 2-4v5z" class="cls-784"/><path d="m314 407 3-8h1l-1 4v1z" style="fill:#70c595"/><path d="M318 399h-1l2-4v1z" style="fill:#67bd8b"/><path d="M308 414h1l-1 3v1l-1 1-3 3v1l-2-1z" style="fill:#63c58a"/><path d="m308 414-6 8-2 1q-3-2-1-4 4-4 3-9l4-8z" class="cls-849"/><path d="M294 197c-4-1-1-3 0-4q2-2 4 1v1z" style="fill:#60d38f"/><path d="M299 194v-2l2-2 3-1v1z" style="fill:#68c590"/><path d="m316 171-6-1-3-3 2-4 3 2 6 4z" class="cls-905"/><path d="m313 177 2-3v3z" style="fill:#6abf92"/><path d="m304 189-3 1 1-5c2-1 3-5 6-1l1 1v1z" class="cls-839"/><path d="M313 177h2l-2 4h-1v-2z" style="fill:#b3cec0"/><path d="M312 180v1l-3 4-1-1 1-2z" class="cls-300"/><path d="m319 167-3-3 3-2z" style="fill:#5dc087"/><path d="M254 297q4 7 12 6l8-2 3 4 2 5 4-2h3l-2 3c-2 2-7 1-8 6h-1q-5-1-6 5l-5 2h-3l1-2v-3l-4-2h-23q-5-1-8 4l-4 1c-1-2 4-6-2-5l2-8-3-4-3 3q0 4-4 2l-8-4 16-5 16 2 2-1q2-4 5 0l3-2 2-5zm-49 50-7-1-1 7q2 4-3 5-4 1-4 7v10l4 7q5 3 4 7-1 5 2 6l2 2-2 1-13-1-4-3c-3-4-7-6 0-9l-1-6v-18q-2-5 1-11 2-7 1-15l-4-2-2-2 2-1 5-2h6l-3 4q-3 5 1 6l2 1q5-4 6 1l2 1 4 1 4 4z" class="cls-905"/><path d="M221 317c6-1 1 3 2 5h-3c0 4-9 4-6 10l-1 1-1 4q-5 0-2 4l-1 3-4-5 3-4q4-3 1-4l-1-3c4-2 9-4 5-9l3-3z" class="cls-905"/><path d="m244 291 5 4-10 3-3-1q-4-4-9 1c-4 3-2-3-3-4v-1h4l8-2z" class="cls-885"/><path d="m216 415-3-2c1-5-4-5-7-8l-3-2c3-1 1-7 6-5h2l3 3v1q-4 2 2 5l3 4zm-42-72 3-3 1 4-4 11-1 3-3 6-4-4v-2l2-2h2l5-9z" class="cls-905"/><path d="M202 384q-9-6-8-18 1-7 6-5-3 11 2 20zm14 31 3-4-3-4q-6-2-2-5l10 6v1l-3 6-6 2z" class="cls-849"/><path d="M197 421q-6-4-1-9 9-6 13 0v2l-3 1q-11-5-9 6" class="cls-905"/><path d="m174 343 1 4-5 9h-2v-8l3-6z" style="fill:#5fd28f"/><path d="M170 398v-1q2-5-2-8v-8l3 4 2 9q2 4-3 4" style="fill:#5fd290"/><path d="M215 417q4 1 2 5h-1l-6-1v-3zm-15-13-7 5-3 1 1-3 5-5z" class="cls-905"/><path d="M166 358v22l-1 3-1-6 1-14v-9z" style="fill:#77c99b"/><path d="m205 347 2-1h1l-1 5-3 6-2-4z" class="cls-222"/><path d="M202 381q-5-9-2-20h1q-3 8 1 16l2 4z" style="fill:#63c88f"/><path d="m178 371-3 3-2-4 2-3z" class="cls-905"/><path d="m199 302 2-1h5l-10 5v-1z" style="fill:#61c188"/><path d="m208 346-4-4c1-1-2-4 2-3l4 5z" class="cls-829"/><path d="m192 423 5 1-1 3-5-3z" class="cls-905"/><path d="m176 327 1-3 3-3h1q1 8-5 6" style="fill:#68c690"/><path d="m207 392-1-2-1-4 1-1 1 1 3 5z" style="fill:#6fc392"/><path d="m171 385 4-2 2 2-1 1h-2zm35 37 3 4-2 1-3-2zm-5-90-3 3-2-2 2-3zm3 86-5 6-1-1z" class="cls-905"/><path d="m202 353 2 4-1 2-1 2h-1l-1-5z" style="fill:#63d291"/><path d="m171 342-3 6-1-2v-1l3-6 1 2z" style="fill:#6bc28e"/><path d="m171 341-1-2h-1v-1l3-4z" style="fill:#69bc8c"/><path d="m207 392 2-1v1l2 4v2h-2z" style="fill:#6ac38f"/><path d="m205 385-1 1-2-2v-3h2l1 2z" style="fill:#70c192"/><path d="m175 333 2 4-2 1z" class="cls-905"/><path d="M175 333v-1l1-3q5 2 0 4" style="fill:#66cf93"/><path d="m165 383 1-3 2 1v4z" style="fill:#61c38c"/><path d="M170 368v3h-1l-1-3z" class="cls-905"/><path d="M188 311h3l-3 3-1-1z" style="fill:#6ec193"/><path d="m189 420-1-2 1-1 1 1zm16-85h-1l-2-1 2-1zm0 55 1 2h-3z" class="cls-905"/><path d="m191 311 2-3 2-1z" style="fill:#64c38e"/><path d="m177 395-1 1-1-1 1-2z" class="cls-905"/><path d="m191 198 1 1 1 2-1 1-1-1-2-3z" class="cls-568"/><path d="M182 189h3l1 3z" style="fill:#82c4a2"/><path d="M325 380h-1l-1-4 1-12v-3h1z" style="fill:#95c1a7"/><path d="M325 378v-17h1v14z" style="fill:#c7dbd0"/><path d="M326 375v-12z" class="cls-133"/><path d="m325 361-1-2 1-3z" style="fill:#b1c9bb"/><path d="m323 376 1 4h-2v-3l1-17z" style="fill:#68c08d"/><path d="M169 339h1l-3 6v-1z" style="fill:#81bc98"/><path d="M271 442v-2l3 1v3h-1z" style="fill:#60d591"/><path d="m271 442 2 2v1h-2l-2-1z" class="cls-46"/><path d="m167 120-1 8h-2v-6l1-3z" style="fill:#80c09c"/><path d="M267 212h-7l6-2 6 1v2h-1z" style="fill:#62d491"/><path d="M271 213h1l-5 2z" style="fill:#c6d3cb"/><path d="M261 215h3l-3 1z" style="fill:#95c4ab"/><path d="m300 227 4-2h1l-1 3h-4z" style="fill:#89c0a0"/><path d="M384 170q-1-9 6-14l2-3 4-9 3-2 1 4q-4 4 1 8l-2 3h-3l-3 2 1 4 4-1 3-2 1 2-4 2-2 4 1 14c1 6-5 2-6 4l-3-3q2-4-4-6zm-121 68q-1 6-6 5l-28 1-21-1-3-4h2l22 1 1-1-2-1 2-2h2l4 2zm95-97-1-1v-1q8-2 8-9l3-1-1 9q-2 6-8 3z" class="cls-905"/><path d="M263 238h-27l-2-2h36z" style="fill:#60d490"/><path d="m383 151-2-3v-4l2-5 4 11zm-19-35-11 9h-3v-1c5-3 6-9 14-8m11 14-3 2-2-4v-3l2-2 1 3z" class="cls-905"/><path d="m348 212 2-3 6-4 1 1-6 6z" style="fill:#60d18f"/><path d="m383 139-2 5v-5q3-3-1-7h-2v-1l5-1z" style="fill:#5bbc83"/><path d="m389 128 2 7-2 3-2-6zm-36 3q-4 5-7-3c4-3 5 2 7 3" class="cls-905"/><path d="m374 229-3 1 2-7 2 3z" style="fill:#62d28f"/><path d="m356 131-1-1 2-2 4 4zm39 4v-6l2 1v5z" class="cls-905"/><path d="m300 228-8 3v-2h1z" style="fill:#6fbf93"/><path d="m365 125-2 2-1-2 2-2z" class="cls-905"/><path d="M280 231h7l-2 2h-5z" style="fill:#76bc94"/><path d="m390 143-2-2 2-1 1 2z" class="cls-905"/><path d="M270 236h-10v-1h10z" style="fill:#66ca92"/><path d="M270 235h-2v-1l4-1h3v1z" style="fill:#63c28e"/><path d="M334 254h-4l2-2z" style="fill:#61d793"/><path d="M275 234h8z" style="fill:#6ad39a"/><path d="M293 229v2h-6v-1h2z" style="fill:#84cba3"/><path d="m401 137-2 2-1-1zm-18 0v-7zm-5-13 2 2-2 1-1-1z" class="cls-905"/><path d="M325 258h-4z" style="fill:#60c387"/><path d="M207 239h-6v-1h6z" class="cls-54"/><path d="M287 231h3l-5 2z" style="fill:#65c18d"/><path d="m279 68-2-2h4z" style="fill:#5dc086"/><path d="M264 61h3l2 1-3 1z" style="fill:#64b886"/><path d="m266 60-7-1 1-1z" style="fill:#a8c3b4"/><path d="M73 371v73l-1-5z" style="fill:#84c4a3"/><path d="M108 444H73v-1h35" style="fill:#74c999"/><path d="m73 359 1-6-1 13z" style="fill:#7cba98"/><path d="m158 251-4 2 3-2z" style="fill:#61be89"/><path d="M219 235h11v1h-11z" style="fill:#78c097"/><path d="M219 235h-7v-1h7" style="fill:#8dc3a7"/><path d="M225 235h-5v-1z" style="fill:#abcdb9"/><path d="M225 235h7v1h-7" style="fill:#9dc6af"/><path d="M232 234h-5v-1h6z" style="fill:#bbcac2"/><path d="m173 246-5 2 2-2z" style="fill:#60c28c"/><path d="M105 444H77q-4-2-3-6v-58l2-28v-3l2-5v-2l3-9h1l1 6-3 4v7q-4 4 0 8v60l-1 22-1 1 2 1h25z" style="fill:#5ccd8d"/><path d="m78 344-2 5v-4z" style="fill:#70be92"/><path d="M165 355v8h-2v-2z" class="cls-658"/><path d="m166 358-1-4v-1l3-2v5z" style="fill:#63c08c"/><path d="M244 291h-8l-5-1 3-1h1l15 1h2v1z" style="fill:#73ca97"/><path d="m165 384 3 1v4l-2 1z" style="fill:#75bd94"/><path d="m221 207 6 3c3 0 7 2 9-4l7-3 1 1v2q-6 1-7 7l-6 1h-4l-6-2-3-2q-2-4 3-3" class="cls-851"/><path d="M221 207q-4-1-3 3l-4-1c-1-2-3-4 2-3l4-1z" class="cls-905"/><path d="M227 214h4v1l-4 1h-3l-1-1z" style="fill:#72c597"/><path d="m148 256-3 2v-2z" class="cls-905"/><path d="M163 377v-13l1 13z" style="fill:#a6bcaf"/><path d="m164 377-1-13v-1h2z" style="fill:#8bbea1"/><path d="M233 234h16v1z" style="fill:#acc1b6"/><path d="M254 269h-24l13-1z" style="fill:#66ca91"/><path d="M244 270h17v1h-17z" style="fill:#77ba94"/><path d="M244 271h3v1h-12z" style="fill:#86ba9d"/><path d="M247 272v-1h14v1z" class="cls-350"/><path d="m250 290-15-1h15z" style="fill:#8abfa1"/><path d="M250 289h-14z" style="fill:#a6beb0"/><path d="M250 290h5l-3 1z" style="fill:#9cc8b0"/><path d="m164 145-1-1v-13h1z" style="fill:#a5bbb0"/><path d="m164 131 1-5v5" style="fill:#bdc8c3"/><path d="M164 131v16-15" style="fill:#89bca1"/><path d="M267 444h-1l-11 2-4-1v-1l11-2z" class="cls-829"/><path d="m251 444-5-1 1-1z" class="cls-905"/><path d="M239 448h-6l19-1-2 1z" style="fill:#6ac28f"/><path d="m255 446 11-2-4 3h-7z" style="fill:#61c68d"/><path d="M255 447h4l-3 2h-6v-1l2-1z" style="fill:#78bd96"/><path d="m221 447-3-2h1l4 2z" style="fill:#9ac1a9"/><path d="M250 448h-11v-1z" style="fill:#6ab28a"/><path d="M212 236h2l5 1v1h-9z" style="fill:#64c38d"/><path d="m211 236-1 2h-5v-2z" style="fill:#80bc9b"/><path d="M240 217h-4v-1h17v1z" style="fill:#67c08f"/><path d="M249 234h11v1h-11" style="fill:#a1bcae"/><path d="M268 234v1h-8v-1z" style="fill:#6ebc91"/><path d="M265 234h-5v-1z" class="cls-730"/><path d="m320 358-7-2 4-7 2-3 2 8z" class="cls-905"/><path d="m320 358 1-4h1v23l-2-5-1-6z" class="cls-784"/><path d="M323 364v-5l1 2z" style="fill:#7cb291"/><path d="M323 126h-1v-5l1 3z" style="fill:#83c69f"/><path d="M253 216h-17l-4-1h22v1z" style="fill:#5ec189"/><path d="m272 269 3-2 5 1v1z" style="fill:#5bc388"/><path d="M261 271v-1l5 1z" class="cls-350"/><path d="M74 380v58q-1 5 3 6h-4z" style="fill:#62c893"/><path d="m194 201-1-2h3l2 4z" style="fill:#80c19e"/><path d="m196 199-2-3v-1h2z" class="cls-905"/><path d="M280 269v-1l7-1v2z" style="fill:#74bd93"/><path d="m232 215 4 1v1h-8l-1-1 4-1z" style="fill:#7eba98"/><path d="M418 139v9h-1v-10z" style="fill:#8ecba9"/><path d="M418 146v-6z" style="fill:#b5c8bd"/><path d="M415 160h-1v-4l1-5 1 5z" style="fill:#6cc692"/><path d="M323 132v9h-1z" style="fill:#5fb183"/><path d="m378 136 2-1v7h-1z" class="cls-380"/><path d="m379 147-1 1 1-6z" style="fill:#ced6d2"/><path d="M380 140v-5z" style="fill:#86bb9c"/><path d="M379 147v-5h1z" style="fill:#a9cfb9"/><path d="m381 139-1-4v-3q4 4 1 7" style="fill:#65a880"/><path d="M380 132v2h-3l1-2z" style="fill:#72b58d"/><path d="M414 156v4l-2 2z" class="cls-905"/><path d="M418 135h-1l1-4 5 3h-1z" style="fill:#61c189"/><path d="M109 445v-68l1-6z" style="fill:#8fc6a7"/><path d="m105 353 5 2-1 8-2-3-2-5z" class="cls-887"/><path d="m107 360 2 3v2l-2 3-3-8z" class="cls-905"/><path d="m107 368 2-3v3l-1 3h-1z" style="fill:#5cc488"/><path d="M107 371h1v73h-1z" style="fill:#64c78d"/><path d="M105 353v2l-2 5v3l-5-2-2 5v60q-1 8 3 16H80l-1-2 1-22v-60l3-3q2-4-3-5v-6l3-5 1 1q0 4 4 3 3-2 1-5v-9q3-5-1-10l1-7q7 1 6 8l-3 15 1 4q1 5 6 4c6-2 6-2 8 6l-3-2-4 5-1 3 3-1zm-8-42q-3-1 0-3z" class="cls-905"/><path d="M92 307v-1h1v1z" style="fill:#7fc09c"/><path d="M88 319q4 5 1 10v9q2 3-1 5-4 1-4-3l-1-1-1-6 1-2 3-6v-5z" class="cls-905"/><path d="M86 321v4l-2 1z" style="fill:#67c28d"/><path d="m319 366 1 6 2 5v2l-2 4h-9l-3-3 2-3q9 0 8-8z" class="cls-905"/><path d="m285 350 1 4-4-3-2-3v-2l1-2 3 3z" style="fill:#66c68f"/><path d="m284 347-3-3-3-5q7 1 6 8" class="cls-905"/><path d="m269 334 8 4v2z" style="fill:#64c48f"/><path d="M277 340v-1h1l3 5-1 2-2-3z" style="fill:#69c995"/><path d="m212 337 1-4 1-1c-3-6 6-6 6-10h3l4-1q3-5 8-4h23l4 2v3l-1 2h3l5-2 1 3-3 2-1 2h-5l-5-2-1-1 4-6 1 2q-6-2-12-1l-9 3h-1l-4-4q-5 4-11 4l6 3-2 2-6 4v1h-2q-5 0-5 4l-1 1z" class="cls-905"/><path d="m267 327 3-2q1 4 4 3h3l-2 2c-5 4-6 0-8-3" class="cls-905"/><path d="M261 329h5l2 4-3-1z" style="fill:#6bc895"/><path d="m294 309 5 2v2h-1z" style="fill:#61c28a"/><path d="m265 332 3 1 1 1v3l-2-1-2-3z" style="fill:#c3d6cb"/><path d="m284 302 2 1-3 2-1-2zm18-117-1 5-2 2q-2-2 0-6v-3h-3l-10-3-3 1-3 1 1-3 3-8q0-5-5-3h-4v-2l2-1 4-4 5-5q1 6 3 8h8q3 0 5 3 1 3-4 3l-2 3 2 2q4-1 5 4z" class="cls-905"/><path d="M275 168h4l-8 9-8 3-3-2 1-2h1q2 4 4 0l2-1q4 1 4-3v-1z" style="fill:#60d08e"/><path d="m255 201-3 3-4-4 1-1-2-4 8 3zm-22-1q3-2 0-4l4 2v2z" class="cls-905"/><path d="m261 176-1 2h-4l-1-1 1-1 4-1z" class="cls-105"/><path d="M256 178h2l-4 3v-2z" style="fill:#68c48f"/><path d="m288 150 4 2 2 3-1 3-4-2-3-4h-2v-1h1z" class="cls-905"/><path d="M284 152h2v4l-5 5v-1l2-5v-3z" class="cls-209"/><path d="M288 130v17l-2-3v-1l2-3z" class="cls-172"/><path d="M298 153v2l-2 4-1-6c0-4 2 0 3 0" style="fill:#5fd292"/><path d="m286 144 2 3v3l-3 1v-4z" style="fill:#5fc08c"/><path d="M288 130v2h-2v-1l-1-3 1-1 2 1z" class="cls-741"/><path d="M292 144v4l-1-1v-3z" class="cls-905"/><path d="M236 94q8-4 16 0z" style="fill:#5ac789"/><path d="m255 94 10 4-1 2h-3l-6-3z" style="fill:#68bb8d"/><path d="m264 100 1-2 8 6h-2l-4-2z" class="cls-243"/><path d="m275 104 3 3v2l-1 1h-1l-3-6z" style="fill:#65ca91"/><path d="M236 94h3v2l-2 1h-3v-3z" style="fill:#75ca98"/><path d="M255 94v3h-2l-2-1v-2z" style="fill:#73c79a"/><path d="M278 109v-2c6 2 12 12 8 16v-2l-6-9z" class="cls-838"/><path d="M286 121v6l-1 1-1-2v-1l1-4z" style="fill:#77c99a"/><path d="M210 163v2l-3-2v-3h2l2 2z" style="fill:#69c491"/><path d="m218 105 4-3 2-1q-1 6-6 5z" class="cls-95"/><path d="M234 94v3h-5z" style="fill:#6dba8e"/><path d="M224 101q-1-4 3-4v3z" class="cls-735"/><path d="M227 100v-3h5z" style="fill:#92c6a8"/><path d="M202 147v-18h1v18z" class="cls-608"/><path d="M202 130v4l-1 9q-3-6 1-13" style="fill:#6db98d"/><path d="M203 129v-3l2-1h1v1z" style="fill:#8ec1a5"/><path d="M202 147h1l1 1 1 2v1h-2z" style="fill:#8ac3a3"/><path d="m218 169-3-3 4-1 16 8 1 3h-10l-3-4z" class="cls-116"/><path d="M230 176h22v1h-2l-13 1h-5z" class="cls-12"/><path d="m223 172 3 4h-2l-3-4z" style="fill:#c2d5ca"/><path d="M232 178h5l1 1v1h-3z" style="fill:#82b79b"/><path d="m238 179-1-1 13-1v2z" class="cls-108"/><path d="M250 179v-2h5l1 1-2 1z" style="fill:#c9d9d1"/><path d="M247 179h2l-11 1v-1z" style="fill:#a4cab5"/><path d="M251 176h-15l-1-3-16-8-4 1-3-1v-1l-1-1v-1l-2-2-1-2-2-5v-1l-1-1v-1l-1-10 2-10-1-4v-1l3-4v-5l2-2v-1l1-1 1-1 4-3 2-2q5 1 6-5l3-1 4 1 7-2 4 3q7-1 13 2l12 7 7 6 4-1 1 1 2 7-3 4 6 5v4c-6 0-4 5-6 8q-1 5 4 6v3h-2q-6-1-8 4-5 11-17 13-4 0-4 5" class="cls-116"/><path d="M223 172h-3l-1-1-1-2z" class="cls-14"/><path d="m206 153 2 5q-5-1-2-5" style="fill:#94bea7"/><path d="m218 106-2 2-3 1 1-2 3-2z" style="fill:#afcbbb"/><path d="m213 109 3-1-4 3z" style="fill:#e1e8e4"/><path d="m205 125 1-4v4" style="fill:#95c2aa"/><path d="m193 196 2 3h-2l-1-1z" style="fill:#64bf8c"/><path d="M205 123v-2l3-2v2z" style="fill:#dde2df"/><path d="M211 162v1h-1z" style="fill:#accdbb"/><path d="m236 415-9-2-1-3 5 1 6 2h6v1z" style="fill:#61d38f"/><path d="m226 410 1 3c-2 2-3 6-6 2l3-6zm10 5 7-1h2l-6 4q-3 1-3-3" class="cls-905"/><path d="M278 398q-3 8-10 8l2-4h1z" class="cls-171"/><path d="M268 406q-2 6-8 5v-1l4-4z" style="fill:#63c98e"/><path d="m286 382-3 7h-2l1-3z" class="cls-198"/><path d="m282 351 4 3v2l-1 3-1-1z" style="fill:#84c29f"/><path d="M243 413h-6v-1h2l11-1h2v2z" class="cls-230"/><path d="m278 398-7 4 1-2 6-4z" style="fill:#7ac29c"/><path d="M260 410h-8l2-2 6-1z" style="fill:#7dca9d"/><path d="M286 382v-4l3-3z" style="fill:#6cc08f"/><path d="M288 364v2h-1l-1-1h-1v-5z" style="fill:#82b99a"/><path d="m288 364-3-4v-1l1-3z" style="fill:#6dc291"/><path d="m288 375-3 3v-4h1l1-1h1z" style="fill:#82ba99"/><path d="M252 411h5l-5 2z" style="fill:#63be88"/><path d="M281 389h2l-2 4z" style="fill:#66c18d"/><path d="M288 366v7z" style="fill:#68d393"/><path d="m233 417-2 1-1-1 1-1z" class="cls-905"/><path d="M278 397v-2l3-2z" style="fill:#6ec495"/><path d="m212 337 1 2v1l-3 1q-3-4 2-4" class="cls-829"/><path d="m210 341 3-1v2l-4 2z" style="fill:#79c19a"/><path d="m224 408-10-6v-1h3v1l5 3h1l2 2z" style="fill:#6dc190"/><path d="M217 401h-3l-3-3v-2l2 1z" style="fill:#82bd9b"/><path d="m224 408 1-1h2l5 3v1h-1l-5-1z" style="fill:#6ec693"/><path d="M209 392v-1l-3-5 2-2-3-2-1-1v-2c4-4 1-8 0-12v-1q4-3 1-7l-1-2 3-6 4-5 2-2 3-3 2-3 3-2 6-2q4 2 4-3h5l4-2h6c0 4 12 10 15 7l1-2h2v1q-2 6 4 9 9 6 9 16 1 7 7 7v4q-6 1-6 7-2 9-8 16-3 4-8 5l-8 4q-6 1-6 6l-13 1-3-1-4-2-5-3-10-11z" class="cls-116"/><path d="m211 346-4 5 1-5z" style="fill:#e6ede9"/><path d="M201 361v16q-4-8-1-16" style="fill:#6ebb8f"/><path d="M202 377v-3h1l1 2v4z" style="fill:#a1d2b7"/><path d="M211 346h-2v-2l4-2v2z" style="fill:#cddcd4"/><path d="m205 382 3 2-2 2-1-1z" class="cls-101"/><path d="m204 357 1 2-1 4h-1v-4z" style="fill:#cfddd5"/><path d="M203 359v6h-1v-4z" style="fill:#a5d3b9"/><path d="m209 392 3 5-2-1z" style="fill:#b6cebf"/><path d="M205 382v1l-1-2z" style="fill:#bbcdc2"/><path d="M207 238h21l2 1-1 1z" class="cls-838"/><path d="M230 235h19v1h-19z" style="fill:#76ce9b"/><path d="M228 238h-9v-1l8-1h3z" style="fill:#5ac688"/><path d="M241 238h8zm-9-2h2l2 2z" class="cls-838"/><path d="M249 236h11v1z" style="fill:#71ce97"/><path d="M107 373v71h-2v-66z" style="fill:#61d691"/><path d="m227 236-8 1-5-1z" style="fill:#59b783"/><path d="M250 235h-17v-1h18z" style="fill:#90c4a6"/><path d="M105 440v2h-6q-4-8-3-16v-60q0-2 3-5l4 2 1 31v41zm-25-90q4 1 3 5l-3 3q-4-4 0-8m-1 90 1 2-2-1z" class="cls-905"/><path d="M250 235h10v1z" class="cls-730"/><path d="m103 360 2-5 2 5z" class="cls-905"/><path d="M103 360h1l3 8v5l-2 5v62l-1-5v-41l-1-31z" class="cls-887"/><path d="m278 343 2 3v2l-3-2-1-3z" style="fill:#adcaba"/><path d="M278 343h-2l-1-1-4-4-2-1v-2l8 5z" style="fill:#89c0a1"/><path d="m239 324 9-3q6-1 12 1l-1-2-4 6-2-1zm-10 3-6-3q6 0 11-4l4 4-6 3z" style="fill:#5fd18e"/><path d="m232 327 6-3h1l14 1h-3l-15 2z" style="fill:#63c78d"/><path d="m227 334-6 2v-3l6-1z" style="fill:#f0f3f2"/><path d="m227 332-6 1 6-4z" class="cls-749"/><path d="m218 338-2 3h-3v-2l1-1 3-1z" style="fill:#dce4df"/><path d="m217 337-3 1q0-4 5-4z" style="fill:#69be8c"/><path d="m217 337 2-3h2v2l-3 2z" style="fill:#c8d6ce"/><path d="M227 331v-2l2-2h2l-1 3-1 1z" style="fill:#69bb8e"/><path d="m261 329-3-1-1-2zm-11-4h3l2 1 1 1h-4z" style="fill:#6cc092"/><path d="M265 332v1h-1l-5-2 2-1z" class="cls-579"/><path d="m269 337 2 1 3 4 3 4 3 2 2 3 2 7v9q-6 0-7-7 0-10-9-16-6-3-4-9l3 1z" class="cls-116"/><path d="m267 336-3-1v-2h1z" style="fill:#eaeeeb"/><path d="m275 168-3 3v-1l1-2zh1z" style="fill:#65bd8c"/><path d="m277 165-2 1h-1l3-4z" style="fill:#dbe6df"/><path d="M277 165v-2l4-2z" class="cls-685"/><path d="M275 167v-1h1z" style="fill:#a4c8b4"/><path d="m261 176-1-1-1-1c0-6 5-4 8-5v3l-4 3z" class="cls-116"/><path d="m263 175 4-3 5-2v2l-4 3-2 1z" style="fill:#77bc95"/><path d="m268 175 4-3q0 4-4 3" class="cls-905"/><path d="m263 175 3 1q-2 4-4 0z" style="fill:#62c18a"/><path d="M255 177h-3v-1q1-7 5-2z" class="cls-116"/><path d="m256 176 1-2h2l1 1z" class="cls-84"/><path d="M285 149v2h-1v-2zm-1 3v-1h1z" style="fill:#b1cbbc"/><path d="M280 154h3v1l-2 3-2 1v-4z" style="fill:#e6ece8"/><path d="m279 159 2-1v3l-4 2v-1z" style="fill:#95c3a9"/><path d="M281 160v-2l2-3z" style="fill:#82be9d"/><path d="M283 154h-1v-3h1z" style="fill:#d0ddd5"/><path d="M284 137v-6h2v14h-1z" style="fill:#e4eae6"/><path d="M286 132h2v8l-2 3z" style="fill:#84c59f"/><path d="M285 149h-1l1-2z" style="fill:#bfdbcc"/><path d="M286 131h-2v-5l1 2z" class="cls-407"/><path d="M251 94v2h-12v-2z" style="fill:#83cca5"/><path d="m278 116-4 1-7-6-12-7c-4-3-9-1-13-2l-4-3v-1l13-1h3l1 2 6 1h1l5 3 1 2 9 8z" class="cls-116"/><path d="m255 99-1-2h1l6 3z" style="fill:#dfe6e3"/><path d="m267 103-5-3h2l3 2z" class="cls-569"/><path d="m273 104 3 6-5-5v-1z" style="fill:#81be9d"/><path d="M271 104v1h-3l-1-2v-1z" style="fill:#a7c8b5"/><path d="M268 105h3l5 5h1v3z" class="cls-627"/><path d="M277 112v-2l1-1 2 3-1 1z" class="cls-668"/><path d="m251 97-13 1-1-1 2-1h1l10 1z" class="cls-122"/><path d="m237 97 1 1v1l-7 2-4-1 5-3z" class="cls-17"/><path d="M251 97h-1v-1h1l2 1z" style="fill:#cad5cf"/><path d="m279 113 6 9h-1l-3-2-2-2z" style="fill:#67c68f"/><path d="m282 119 3 2-1 4-1-1z" style="fill:#84bd9c"/><path d="m283 124 1 1v3l-2-3z" class="cls-20"/><path d="m205 126 1 4-2 10h-1v-11z" class="cls-17"/><path d="M203 140h1v8l-1-1z" style="fill:#dfe7e2"/><path d="M204 148v-8l1 10z" class="cls-17"/><path d="m280 154-1 1h-2l-9 12v2h-1c-3 1-8-1-8 5h-2q-4-5-5 2h-1q0-4 4-5 12-2 17-13 3-5 8-4" class="cls-116"/><path d="M247 179h-8z" style="fill:#d2d9d6"/><path d="m285 147-1 2-1 2h-1q-5-1-4-6c2-3 0-8 6-8l1 8zm-3-22 2 3v5l-6-5 3-4z" class="cls-116"/><path d="m282 125-1-1-2-7h1l2 2z" class="cls-3"/><path d="m280 117-1-1-1-3v-1l2 1z" style="fill:#c1d5ca"/><path d="m205 123 3-2-3 4z" style="fill:#f6f6f6"/><path d="M231 411h1l5 1v1z" style="fill:#63c28b"/><path d="M268 406h-3v-1l3-3h2z" style="fill:#89bea0"/><path d="M270 402h-2l4-3v1z" class="cls-105"/><path d="M260 410v-2l1-1 2-1h1z" style="fill:#71c093"/><path d="m264 406 1-1h1z" style="fill:#c3d1c9"/><path d="M265 405q-4-1-7 2l-3 2-2 2h-1l-3-2q0-5 6-6l7-4q6-1 9-5 6-7 8-16 0-6 6-7v7l-2 4v4l-1 3q-5 0-4 5l-3 3-2 2-4 3z" class="cls-116"/><path d="M282 386v-4l2-1 1 1z" class="cls-521"/><path d="M284 363v-5l1 1v4z" style="fill:#d3e4db"/><path d="m248 409 3 2h-1l-12-1h-3z" class="cls-600"/><path d="m238 410 12 1-11 1h-1z" style="fill:#b8cbc0"/><path d="M238 410v2h-1l-5-1v-2l3 1z" style="fill:#96c7ab"/><path d="m272 399 2-2 3-3h1v2l-6 4z" style="fill:#b2cdbe"/><path d="m254 409 3-2h4l-1 1z" style="fill:#dae1de"/><path d="m285 382-1-1v-5h1z" style="fill:#c7ddd1"/><path d="M285 376v-13h1v13" style="fill:#e5ebe7"/><path d="M285 374v-9h1z" style="fill:#cbd5cf"/><path d="M286 374v-9l1 1v7z" style="fill:#adc5b7"/><path d="M287 373v-7h1z" style="fill:#8bcca5"/><path d="M278 394h-1q-1-5 4-5v1z" style="fill:#cfddd6"/><path d="m278 394 3-4v3z" style="fill:#8ec0a5"/><path d="M213 341h3l-3 3z" class="cls-101"/><path d="m213 397-3-5 3 1 10 11v1h-1l-5-3v-1z" class="cls-72"/><path d="M223 405v-1l5 3h-3z" class="cls-138"/><path d="M227 407h1l4 2v1z" style="fill:#92bfa6"/><path d="m262 334-1 2c-3 3-15-3-15-7h6l2 1h1l1 1z" class="cls-116"/><path d="M204 379v-12c1 4 4 8 0 12" class="cls-102"/><path d="M252 329h-14v-1h14z" style="fill:#f1f7f3"/><path d="M227 331h4q0 5-4 3z" class="cls-116"/><path d="m262 334-6-3h3l5 2v1z" style="fill:#fefefe"/><path d="M204 367v9l-1-2v-9l1 1z" style="fill:#e9f0ec"/><path d="M204 366v-3l1-4q3 4-1 7" class="cls-102"/><path d="M231 331h-2l1-1h1l5-2h2v1l-2 2z" class="cls-110"/><path d="m236 331 2-2h2z" class="cls-116"/><path d="M202 374v-9z" style="fill:#83b598"/><path d="M202 374v-9h1z" style="fill:#b7d3c3"/><path d="m277 346-3-4h1l1 1z" class="cls-95"/><path d="M275 342h-1l-3-4z" style="fill:#c5d8cd"/><path d="M231 330h-1l1-3h4v1z" style="fill:#86c0a0"/><path d="M235 328v-1l15-2v1l-10 1-3 1z" style="fill:#70bb8f"/><path d="M252 329v-1h4l1 2h-2l-1 1z" style="fill:#95c3aa"/><path d="M255 329h3v1z" style="fill:#b9cdc3"/><path d="M259 330h2z" style="fill:#bed6c9"/><path d="M252 327v1h-2l-10-1 10-1z" style="fill:#83b899"/><path d="m267 169 5-2v1l-1 2-5 2z" style="fill:#eaeeec"/><path d="M273 168h1z" style="fill:#9dc5b0"/><path d="m274 167-5 2v-2l9-12h2v4l-2 3-3 4z" class="cls-116"/><path d="M286 142v1-10z" style="fill:#c5d0c9"/><path d="M286 142v-9z" style="fill:#a4beae"/><path d="M250 96v1l-10-1z" style="fill:#bfdecd"/><path d="M261 407h-4q3-4 7-2l-1 1z" class="cls-11"/><path d="M284 378v3l-2 1z" class="cls-143"/><path d="M259 330v1h-3l-1-1z" style="fill:#dde8e2"/><path d="M255 329h-1z" style="fill:#d7deda"/><path d="m240 327 10 1h-13z" style="fill:#b8d7c5"/><path d="M235 328h1l-5 2z" style="fill:#ced9d2"/></g><g id="Layer_2" data-name="Layer 2"><path d="M110 446a674 674 0 0 1 6-100 106 106 0 0 1 70-65c36-12 56-7 87-10 14-2 63-7 99-37 36-32 44-78 46-101l18 18 28-27-66-66-64 65 28 28 17-18c0 11-2 36-21 59-19 25-46 32-56 35l-39 6-30 2-20 1a166 166 0 0 0-119 65c-19 27-20 55-22 96q-2 29 0 48z" class="cls-906"/><path d="M244 57a80 80 0 1 0 0 160 80 80 0 0 0 0-160Zm1 123a42 42 0 1 1-1-84 42 42 0 0 1 1 84Zm-1 109a80 80 0 1 0 0 160 80 80 0 0 0 0-160Zm1 123a42 42 0 1 1-1-84 42 42 0 0 1 1 84Z" class="cls-906"/></g></svg>