<?xml version="1.0" encoding="UTF-8"?><svg id="Layer_1" xmlns="http://www.w3.org/2000/svg" viewBox="0 0 393.3 393.5"><defs><style>.cls-1{fill:#5ccd8b;stroke:#000;stroke-miterlimit:10;stroke-width:.5px;}</style></defs><g id="Layer_2"><path class="cls-1" d="m38.94,389.25c-.38-11.16-.65-26.99,0-46,.93-27.44,1.49-41.42,6-54,9.2-25.68,26.6-40.88,33-46,7.32-5.86,17.9-12.67,37-19,36.09-11.97,56.52-6.95,87-10,14.77-1.48,63.72-6.37,99-37,36.16-31.39,44.02-77.71,46-101,6.17,6.17,12.33,12.33,18.5,18.5l27.5-27.5L327.44,1.75l-64.5,64.5,28,28c5.83-5.83,11.67-11.67,17.5-17.5-.16,10.51-2.09,36.36-20.56,59.27-19.57,24.27-46.61,31.47-56.94,34.23-13.9,3.7-30.43,5.22-39,6-10.85.99-25.75,1.78-30,2-13.38.7-14.35.51-20,1-3.68.32-17.46,1.63-33,6-25.61,7.2-43.57,19.22-49,23-9.05,6.3-24.54,17.3-37,36C4.92,271.28,3.3,299.29.94,340.25c-1.15,19.92-.67,36.5,0,48l38,1Z"/><path class="cls-1" d="m173.44.25c-44.46,0-80.5,36.04-80.5,80.5s36.04,80.5,80.5,80.5,80.5-36.04,80.5-80.5S217.9.25,173.44.25Zm.5,123c-23.2,0-42-18.8-42-42s18.8-42,42-42,42,18.8,42,42-18.8,42-42,42Z"/><path class="cls-1" d="m173.44,232.25c-44.46,0-80.5,36.04-80.5,80.5s36.04,80.5,80.5,80.5,80.5-36.04,80.5-80.5-36.04-80.5-80.5-80.5Zm.5,123c-23.2,0-42-18.8-42-42s18.8-42,42-42,42,18.8,42,42-18.8,42-42,42Z"/></g></svg>